<?xml version="1.0" encoding="utf-8" standalone="no"?>
<!DOCTYPE svg PUBLIC "-//W3C//DTD SVG 1.1//EN"
  "http://www.w3.org/Graphics/SVG/1.1/DTD/svg11.dtd">
<svg xmlns:xlink="http://www.w3.org/1999/xlink" width="668.277299pt" height="360pt" viewBox="0 0 668.277299 360" xmlns="http://www.w3.org/2000/svg" version="1.1">
 <metadata>
  <rdf:RDF xmlns:dc="http://purl.org/dc/elements/1.1/" xmlns:cc="http://creativecommons.org/ns#" xmlns:rdf="http://www.w3.org/1999/02/22-rdf-syntax-ns#">
   <cc:Work>
    <dc:type rdf:resource="http://purl.org/dc/dcmitype/StillImage"/>
    <dc:date>2023-07-26T13:57:58.258270</dc:date>
    <dc:format>image/svg+xml</dc:format>
    <dc:creator>
     <cc:Agent>
      <dc:title>Matplotlib v3.6.2, https://matplotlib.org/</dc:title>
     </cc:Agent>
    </dc:creator>
   </cc:Work>
  </rdf:RDF>
 </metadata>
 <defs>
  <style type="text/css">*{stroke-linejoin: round; stroke-linecap: butt}</style>
 </defs>
 <g id="figure_1">
  <g id="patch_1">
   <path d="M 0 360 
L 668.277299 360 
L 668.277299 0 
L 0 0 
z
" style="fill: #ffffff"/>
  </g>
  <g id="axes_1">
   <g id="patch_2">
    <path d="M 10.8 349.2 
L 657.477299 349.2 
L 657.477299 10.8 
L 10.8 10.8 
z
" style="fill: #ffffff"/>
   </g>
   <g id="PathCollection_1">
    <defs>
     <path id="madc0367450" d="M 0 141.421356 
C 37.505382 141.421356 73.47969 126.52031 100 100 
C 126.52031 73.47969 141.421356 37.505382 141.421356 0 
C 141.421356 -37.505382 126.52031 -73.47969 100 -100 
C 73.47969 -126.52031 37.505382 -141.421356 0 -141.421356 
C -37.505382 -141.421356 -73.47969 -126.52031 -100 -100 
C -126.52031 -73.47969 -141.421356 -37.505382 -141.421356 0 
C -141.421356 37.505382 -126.52031 73.47969 -100 100 
C -73.47969 126.52031 -37.505382 141.421356 0 141.421356 
z
" style="stroke: #ec6d00; stroke-width: 10"/>
    </defs>
    <g clip-path="url(#pda4af39eaa)">
     <use xlink:href="#madc0367450" x="10.8" y="180" style="fill: #ff9400; stroke: #ec6d00; stroke-width: 10"/>
    </g>
   </g>
   <g id="PathCollection_2">
    <defs>
     <path id="m4212cdd0b1" d="M 0 1.230412 
C 0.326309 1.230412 0.639297 1.100768 0.870033 0.870033 
C 1.100768 0.639297 1.230412 0.326309 1.230412 0 
C 1.230412 -0.326309 1.100768 -0.639297 0.870033 -0.870033 
C 0.639297 -1.100768 0.326309 -1.230412 0 -1.230412 
C -0.326309 -1.230412 -0.639297 -1.100768 -0.870033 -0.870033 
C -1.100768 -0.639297 -1.230412 -0.326309 -1.230412 0 
C -1.230412 0.326309 -1.100768 0.639297 -0.870033 0.870033 
C -0.639297 1.100768 -0.326309 1.230412 0 1.230412 
z
" style="stroke: #000000"/>
    </defs>
    <g clip-path="url(#pda4af39eaa)">
     <use xlink:href="#m4212cdd0b1" x="185.99235" y="180" style="stroke: #000000"/>
    </g>
   </g>
   <g id="PathCollection_3">
    <defs>
     <path id="m60eb1069e0" d="M 0 1.296535 
C 0.343845 1.296535 0.673654 1.159924 0.916789 0.916789 
C 1.159924 0.673654 1.296535 0.343845 1.296535 0 
C 1.296535 -0.343845 1.159924 -0.673654 0.916789 -0.916789 
C 0.673654 -1.159924 0.343845 -1.296535 0 -1.296535 
C -0.343845 -1.296535 -0.673654 -1.159924 -0.916789 -0.916789 
C -1.159924 -0.673654 -1.296535 -0.343845 -1.296535 0 
C -1.296535 0.343845 -1.159924 0.673654 -0.916789 0.916789 
C -0.673654 1.159924 -0.343845 1.296535 0 1.296535 
z
" style="stroke: #000000"/>
    </defs>
    <g clip-path="url(#pda4af39eaa)">
     <use xlink:href="#m60eb1069e0" x="246.127917" y="180" style="stroke: #000000"/>
    </g>
   </g>
   <g id="PathCollection_4">
    <defs>
     <path id="mf404b56159" d="M 0 0.689757 
C 0.182926 0.689757 0.358384 0.61708 0.487732 0.487732 
C 0.61708 0.358384 0.689757 0.182926 0.689757 0 
C 0.689757 -0.182926 0.61708 -0.358384 0.487732 -0.487732 
C 0.358384 -0.61708 0.182926 -0.689757 0 -0.689757 
C -0.182926 -0.689757 -0.358384 -0.61708 -0.487732 -0.487732 
C -0.61708 -0.358384 -0.689757 -0.182926 -0.689757 0 
C -0.689757 0.182926 -0.61708 0.358384 -0.487732 0.487732 
C -0.358384 0.61708 -0.182926 0.689757 0 0.689757 
z
" style="stroke: #000000"/>
    </defs>
    <g clip-path="url(#pda4af39eaa)">
     <use xlink:href="#mf404b56159" x="305.81955" y="180" style="stroke: #000000"/>
    </g>
   </g>
   <g id="PathCollection_5">
    <defs>
     <path id="m6ffa25e802" d="M 0 14.53416 
C 3.854504 14.53416 7.551657 13.002749 10.277203 10.277203 
C 13.002749 7.551657 14.53416 3.854504 14.53416 0 
C 14.53416 -3.854504 13.002749 -7.551657 10.277203 -10.277203 
C 7.551657 -13.002749 3.854504 -14.53416 0 -14.53416 
C -3.854504 -14.53416 -7.551657 -13.002749 -10.277203 -10.277203 
C -13.002749 -7.551657 -14.53416 -3.854504 -14.53416 0 
C -14.53416 3.854504 -13.002749 7.551657 -10.277203 10.277203 
C -7.551657 13.002749 -3.854504 14.53416 0 14.53416 
z
" style="stroke: #000000"/>
    </defs>
    <g clip-path="url(#pda4af39eaa)">
     <use xlink:href="#m6ffa25e802" x="376.380625" y="180" style="stroke: #000000"/>
    </g>
   </g>
   <g id="PathCollection_6">
    <defs>
     <path id="mc3dedac8e8" d="M 0 12.252258 
C 3.249337 12.252258 6.366027 10.961283 8.663655 8.663655 
C 10.961283 6.366027 12.252258 3.249337 12.252258 0 
C 12.252258 -3.249337 10.961283 -6.366027 8.663655 -8.663655 
C 6.366027 -10.961283 3.249337 -12.252258 0 -12.252258 
C -3.249337 -12.252258 -6.366027 -10.961283 -8.663655 -8.663655 
C -10.961283 -6.366027 -12.252258 -3.249337 -12.252258 0 
C -12.252258 3.249337 -10.961283 6.366027 -8.663655 8.663655 
C -6.366027 10.961283 -3.249337 12.252258 0 12.252258 
z
" style="stroke: #000000"/>
    </defs>
    <g clip-path="url(#pda4af39eaa)">
     <use xlink:href="#mc3dedac8e8" x="456.435694" y="180" style="stroke: #000000"/>
    </g>
   </g>
   <g id="PathCollection_7">
    <defs>
     <path id="m55de19bf81" d="M 0 5.199106 
C 1.378819 5.199106 2.701351 4.651296 3.676323 3.676323 
C 4.651296 2.701351 5.199106 1.378819 5.199106 0 
C 5.199106 -1.378819 4.651296 -2.701351 3.676323 -3.676323 
C 2.701351 -4.651296 1.378819 -5.199106 0 -5.199106 
C -1.378819 -5.199106 -2.701351 -4.651296 -3.676323 -3.676323 
C -4.651296 -2.701351 -5.199106 -1.378819 -5.199106 0 
C -5.199106 1.378819 -4.651296 2.701351 -3.676323 3.676323 
C -2.701351 4.651296 -1.378819 5.199106 0 5.199106 
z
" style="stroke: #000000"/>
    </defs>
    <g clip-path="url(#pda4af39eaa)">
     <use xlink:href="#m55de19bf81" x="528.825731" y="180" style="stroke: #000000"/>
    </g>
   </g>
   <g id="PathCollection_8">
    <defs>
     <path id="m977bed5574" d="M 0 5.030557 
C 1.334119 5.030557 2.613776 4.500505 3.557141 3.557141 
C 4.500505 2.613776 5.030557 1.334119 5.030557 0 
C 5.030557 -1.334119 4.500505 -2.613776 3.557141 -3.557141 
C 2.613776 -4.500505 1.334119 -5.030557 0 -5.030557 
C -1.334119 -5.030557 -2.613776 -4.500505 -3.557141 -3.557141 
C -4.500505 -2.613776 -5.030557 -1.334119 -5.030557 0 
C -5.030557 1.334119 -4.500505 2.613776 -3.557141 3.557141 
C -2.613776 4.500505 -1.334119 5.030557 0 5.030557 
z
" style="stroke: #000000"/>
    </defs>
    <g clip-path="url(#pda4af39eaa)">
     <use xlink:href="#m977bed5574" x="595.286013" y="180" style="stroke: #000000"/>
    </g>
   </g>
   <g id="matplotlib.axis_1">
    <g id="xtick_1"/>
    <g id="xtick_2"/>
    <g id="xtick_3"/>
    <g id="xtick_4"/>
    <g id="xtick_5"/>
    <g id="xtick_6"/>
   </g>
   <g id="matplotlib.axis_2">
    <g id="ytick_1"/>
    <g id="ytick_2"/>
    <g id="ytick_3"/>
    <g id="ytick_4"/>
    <g id="ytick_5"/>
    <g id="ytick_6"/>
    <g id="ytick_7"/>
    <g id="ytick_8"/>
    <g id="ytick_9"/>
   </g>
   <g id="patch_3">
    <path d="M 10.8 349.2 
L 10.8 10.8 
" style="fill: none; stroke: #000000; stroke-width: 1.5; stroke-linejoin: miter; stroke-linecap: square"/>
   </g>
   <g id="patch_4">
    <path d="M 657.477299 349.2 
L 657.477299 10.8 
" style="fill: none; stroke: #000000; stroke-width: 1.5; stroke-linejoin: miter; stroke-linecap: square"/>
   </g>
   <g id="patch_5">
    <path d="M 10.8 349.2 
L 657.477299 349.2 
" style="fill: none; stroke: #000000; stroke-width: 1.5; stroke-linejoin: miter; stroke-linecap: square"/>
   </g>
   <g id="patch_6">
    <path d="M 10.8 10.8 
L 657.477299 10.8 
" style="fill: none; stroke: #000000; stroke-width: 1.5; stroke-linejoin: miter; stroke-linecap: square"/>
   </g>
   <g id="text_1">
    <!-- Sun -->
    <g style="fill: #b23200" transform="translate(16.606069 160.36375) scale(0.1 -0.1)">
     <defs>
      <path id="DejaVuSans-Bold-53" d="M 3834 4519 
L 3834 3531 
Q 3450 3703 3084 3790 
Q 2719 3878 2394 3878 
Q 1963 3878 1756 3759 
Q 1550 3641 1550 3391 
Q 1550 3203 1689 3098 
Q 1828 2994 2194 2919 
L 2706 2816 
Q 3484 2659 3812 2340 
Q 4141 2022 4141 1434 
Q 4141 663 3683 286 
Q 3225 -91 2284 -91 
Q 1841 -91 1394 -6 
Q 947 78 500 244 
L 500 1259 
Q 947 1022 1364 901 
Q 1781 781 2169 781 
Q 2563 781 2772 912 
Q 2981 1044 2981 1288 
Q 2981 1506 2839 1625 
Q 2697 1744 2272 1838 
L 1806 1941 
Q 1106 2091 782 2419 
Q 459 2747 459 3303 
Q 459 4000 909 4375 
Q 1359 4750 2203 4750 
Q 2588 4750 2994 4692 
Q 3400 4634 3834 4519 
z
" transform="scale(0.015625)"/>
      <path id="DejaVuSans-Bold-75" d="M 500 1363 
L 500 3500 
L 1625 3500 
L 1625 3150 
Q 1625 2866 1622 2436 
Q 1619 2006 1619 1863 
Q 1619 1441 1641 1255 
Q 1663 1069 1716 984 
Q 1784 875 1895 815 
Q 2006 756 2150 756 
Q 2500 756 2700 1025 
Q 2900 1294 2900 1772 
L 2900 3500 
L 4019 3500 
L 4019 0 
L 2900 0 
L 2900 506 
Q 2647 200 2364 54 
Q 2081 -91 1741 -91 
Q 1134 -91 817 281 
Q 500 653 500 1363 
z
" transform="scale(0.015625)"/>
      <path id="DejaVuSans-Bold-6e" d="M 4056 2131 
L 4056 0 
L 2931 0 
L 2931 347 
L 2931 1631 
Q 2931 2084 2911 2256 
Q 2891 2428 2841 2509 
Q 2775 2619 2662 2680 
Q 2550 2741 2406 2741 
Q 2056 2741 1856 2470 
Q 1656 2200 1656 1722 
L 1656 0 
L 538 0 
L 538 3500 
L 1656 3500 
L 1656 2988 
Q 1909 3294 2193 3439 
Q 2478 3584 2822 3584 
Q 3428 3584 3742 3212 
Q 4056 2841 4056 2131 
z
" transform="scale(0.015625)"/>
     </defs>
     <use xlink:href="#DejaVuSans-Bold-53"/>
     <use xlink:href="#DejaVuSans-Bold-75" x="72.021484"/>
     <use xlink:href="#DejaVuSans-Bold-6e" x="143.212891"/>
    </g>
    <!--  -->
    <g style="fill: #b23200" transform="translate(16.606069 171.561563) scale(0.1 -0.1)"/>
    <!-- 1.00 R$_\odot$ -->
    <g style="fill: #b23200" transform="translate(16.606069 182.759375) scale(0.1 -0.1)">
     <defs>
      <path id="DejaVuSans-Bold-31" d="M 750 831 
L 1813 831 
L 1813 3847 
L 722 3622 
L 722 4441 
L 1806 4666 
L 2950 4666 
L 2950 831 
L 4013 831 
L 4013 0 
L 750 0 
L 750 831 
z
" transform="scale(0.015625)"/>
      <path id="DejaVuSans-Bold-2e" d="M 653 1209 
L 1778 1209 
L 1778 0 
L 653 0 
L 653 1209 
z
" transform="scale(0.015625)"/>
      <path id="DejaVuSans-Bold-30" d="M 2944 2338 
Q 2944 3213 2780 3570 
Q 2616 3928 2228 3928 
Q 1841 3928 1675 3570 
Q 1509 3213 1509 2338 
Q 1509 1453 1675 1090 
Q 1841 728 2228 728 
Q 2613 728 2778 1090 
Q 2944 1453 2944 2338 
z
M 4147 2328 
Q 4147 1169 3647 539 
Q 3147 -91 2228 -91 
Q 1306 -91 806 539 
Q 306 1169 306 2328 
Q 306 3491 806 4120 
Q 1306 4750 2228 4750 
Q 3147 4750 3647 4120 
Q 4147 3491 4147 2328 
z
" transform="scale(0.015625)"/>
      <path id="DejaVuSans-Bold-20" transform="scale(0.015625)"/>
      <path id="DejaVuSans-Bold-52" d="M 2297 2597 
Q 2675 2597 2839 2737 
Q 3003 2878 3003 3200 
Q 3003 3519 2839 3656 
Q 2675 3794 2297 3794 
L 1791 3794 
L 1791 2597 
L 2297 2597 
z
M 1791 1766 
L 1791 0 
L 588 0 
L 588 4666 
L 2425 4666 
Q 3347 4666 3776 4356 
Q 4206 4047 4206 3378 
Q 4206 2916 3982 2619 
Q 3759 2322 3309 2181 
Q 3556 2125 3751 1926 
Q 3947 1728 4147 1325 
L 4800 0 
L 3519 0 
L 2950 1159 
Q 2778 1509 2601 1637 
Q 2425 1766 2131 1766 
L 1791 1766 
z
" transform="scale(0.015625)"/>
      <path id="DejaVuSans-2299" d="M 2350 2403 
L 3013 2403 
L 3013 1609 
L 2350 1609 
L 2350 2403 
z
M 3306 3522 
Q 3016 3644 2681 3644 
Q 2347 3644 2056 3522 
Q 1769 3400 1531 3163 
Q 1291 2922 1172 2634 
Q 1053 2347 1053 2006 
Q 1053 1675 1172 1387 
Q 1291 1100 1531 859 
Q 1769 622 2056 500 
Q 2347 378 2681 378 
Q 3016 378 3306 500 
Q 3594 622 3831 859 
Q 4072 1100 4190 1387 
Q 4309 1675 4309 2006 
Q 4309 2347 4190 2634 
Q 4072 2922 3831 3163 
Q 3594 3400 3306 3522 
z
M 1878 3956 
Q 2250 4113 2681 4113 
Q 3113 4113 3484 3956 
Q 3856 3800 4163 3494 
Q 4472 3184 4625 2813 
Q 4778 2444 4778 2006 
Q 4778 1578 4625 1206 
Q 4472 838 4163 528 
Q 3856 222 3484 65 
Q 3113 -91 2681 -91 
Q 2250 -91 1878 65 
Q 1506 222 1200 528 
Q 891 838 738 1206 
Q 584 1578 584 2006 
Q 584 2444 738 2813 
Q 891 3184 1200 3494 
Q 1506 3800 1878 3956 
z
" transform="scale(0.015625)"/>
     </defs>
     <use xlink:href="#DejaVuSans-Bold-31" transform="translate(0 0.78125)"/>
     <use xlink:href="#DejaVuSans-Bold-2e" transform="translate(69.580078 0.78125)"/>
     <use xlink:href="#DejaVuSans-Bold-30" transform="translate(107.568359 0.78125)"/>
     <use xlink:href="#DejaVuSans-Bold-30" transform="translate(177.148438 0.78125)"/>
     <use xlink:href="#DejaVuSans-Bold-20" transform="translate(246.728516 0.78125)"/>
     <use xlink:href="#DejaVuSans-Bold-52" transform="translate(281.542969 0.78125)"/>
     <use xlink:href="#DejaVuSans-2299" transform="translate(373.139648 -15.625) scale(0.7)"/>
    </g>
    <!--  -->
    <g style="fill: #b23200" transform="translate(16.606069 193.957188) scale(0.1 -0.1)"/>
    <!-- 8 Planets -->
    <g style="fill: #b23200" transform="translate(16.606069 205.155) scale(0.1 -0.1)">
     <defs>
      <path id="DejaVuSans-Bold-38" d="M 2228 2088 
Q 1891 2088 1709 1903 
Q 1528 1719 1528 1375 
Q 1528 1031 1709 848 
Q 1891 666 2228 666 
Q 2563 666 2741 848 
Q 2919 1031 2919 1375 
Q 2919 1722 2741 1905 
Q 2563 2088 2228 2088 
z
M 1350 2484 
Q 925 2613 709 2878 
Q 494 3144 494 3541 
Q 494 4131 934 4440 
Q 1375 4750 2228 4750 
Q 3075 4750 3515 4442 
Q 3956 4134 3956 3541 
Q 3956 3144 3739 2878 
Q 3522 2613 3097 2484 
Q 3572 2353 3814 2058 
Q 4056 1763 4056 1313 
Q 4056 619 3595 264 
Q 3134 -91 2228 -91 
Q 1319 -91 855 264 
Q 391 619 391 1313 
Q 391 1763 633 2058 
Q 875 2353 1350 2484 
z
M 1631 3419 
Q 1631 3141 1786 2991 
Q 1941 2841 2228 2841 
Q 2509 2841 2662 2991 
Q 2816 3141 2816 3419 
Q 2816 3697 2662 3845 
Q 2509 3994 2228 3994 
Q 1941 3994 1786 3844 
Q 1631 3694 1631 3419 
z
" transform="scale(0.015625)"/>
      <path id="DejaVuSans-Bold-50" d="M 588 4666 
L 2584 4666 
Q 3475 4666 3951 4270 
Q 4428 3875 4428 3144 
Q 4428 2409 3951 2014 
Q 3475 1619 2584 1619 
L 1791 1619 
L 1791 0 
L 588 0 
L 588 4666 
z
M 1791 3794 
L 1791 2491 
L 2456 2491 
Q 2806 2491 2997 2661 
Q 3188 2831 3188 3144 
Q 3188 3456 2997 3625 
Q 2806 3794 2456 3794 
L 1791 3794 
z
" transform="scale(0.015625)"/>
      <path id="DejaVuSans-Bold-6c" d="M 538 4863 
L 1656 4863 
L 1656 0 
L 538 0 
L 538 4863 
z
" transform="scale(0.015625)"/>
      <path id="DejaVuSans-Bold-61" d="M 2106 1575 
Q 1756 1575 1579 1456 
Q 1403 1338 1403 1106 
Q 1403 894 1545 773 
Q 1688 653 1941 653 
Q 2256 653 2472 879 
Q 2688 1106 2688 1447 
L 2688 1575 
L 2106 1575 
z
M 3816 1997 
L 3816 0 
L 2688 0 
L 2688 519 
Q 2463 200 2181 54 
Q 1900 -91 1497 -91 
Q 953 -91 614 226 
Q 275 544 275 1050 
Q 275 1666 698 1953 
Q 1122 2241 2028 2241 
L 2688 2241 
L 2688 2328 
Q 2688 2594 2478 2717 
Q 2269 2841 1825 2841 
Q 1466 2841 1156 2769 
Q 847 2697 581 2553 
L 581 3406 
Q 941 3494 1303 3539 
Q 1666 3584 2028 3584 
Q 2975 3584 3395 3211 
Q 3816 2838 3816 1997 
z
" transform="scale(0.015625)"/>
      <path id="DejaVuSans-Bold-65" d="M 4031 1759 
L 4031 1441 
L 1416 1441 
Q 1456 1047 1700 850 
Q 1944 653 2381 653 
Q 2734 653 3104 758 
Q 3475 863 3866 1075 
L 3866 213 
Q 3469 63 3072 -14 
Q 2675 -91 2278 -91 
Q 1328 -91 801 392 
Q 275 875 275 1747 
Q 275 2603 792 3093 
Q 1309 3584 2216 3584 
Q 3041 3584 3536 3087 
Q 4031 2591 4031 1759 
z
M 2881 2131 
Q 2881 2450 2695 2645 
Q 2509 2841 2209 2841 
Q 1884 2841 1681 2658 
Q 1478 2475 1428 2131 
L 2881 2131 
z
" transform="scale(0.015625)"/>
      <path id="DejaVuSans-Bold-74" d="M 1759 4494 
L 1759 3500 
L 2913 3500 
L 2913 2700 
L 1759 2700 
L 1759 1216 
Q 1759 972 1856 886 
Q 1953 800 2241 800 
L 2816 800 
L 2816 0 
L 1856 0 
Q 1194 0 917 276 
Q 641 553 641 1216 
L 641 2700 
L 84 2700 
L 84 3500 
L 641 3500 
L 641 4494 
L 1759 4494 
z
" transform="scale(0.015625)"/>
      <path id="DejaVuSans-Bold-73" d="M 3272 3391 
L 3272 2541 
Q 2913 2691 2578 2766 
Q 2244 2841 1947 2841 
Q 1628 2841 1473 2761 
Q 1319 2681 1319 2516 
Q 1319 2381 1436 2309 
Q 1553 2238 1856 2203 
L 2053 2175 
Q 2913 2066 3209 1816 
Q 3506 1566 3506 1031 
Q 3506 472 3093 190 
Q 2681 -91 1863 -91 
Q 1516 -91 1145 -36 
Q 775 19 384 128 
L 384 978 
Q 719 816 1070 734 
Q 1422 653 1784 653 
Q 2113 653 2278 743 
Q 2444 834 2444 1013 
Q 2444 1163 2330 1236 
Q 2216 1309 1875 1350 
L 1678 1375 
Q 931 1469 631 1722 
Q 331 1975 331 2491 
Q 331 3047 712 3315 
Q 1094 3584 1881 3584 
Q 2191 3584 2531 3537 
Q 2872 3491 3272 3391 
z
" transform="scale(0.015625)"/>
     </defs>
     <use xlink:href="#DejaVuSans-Bold-38"/>
     <use xlink:href="#DejaVuSans-Bold-20" x="69.580078"/>
     <use xlink:href="#DejaVuSans-Bold-50" x="104.394531"/>
     <use xlink:href="#DejaVuSans-Bold-6c" x="177.685547"/>
     <use xlink:href="#DejaVuSans-Bold-61" x="211.962891"/>
     <use xlink:href="#DejaVuSans-Bold-6e" x="279.443359"/>
     <use xlink:href="#DejaVuSans-Bold-65" x="350.634766"/>
     <use xlink:href="#DejaVuSans-Bold-74" x="418.457031"/>
     <use xlink:href="#DejaVuSans-Bold-73" x="466.259766"/>
    </g>
   </g>
   <g id="text_2">
    <!-- Venus -->
    <g style="fill: #696969" transform="translate(168.911881 147.898095) scale(0.1 -0.1)">
     <defs>
      <path id="DejaVuSans-Bold-56" d="M 31 4666 
L 1241 4666 
L 2478 1222 
L 3713 4666 
L 4922 4666 
L 3194 0 
L 1759 0 
L 31 4666 
z
" transform="scale(0.015625)"/>
     </defs>
     <use xlink:href="#DejaVuSans-Bold-56"/>
     <use xlink:href="#DejaVuSans-Bold-65" x="71.892578"/>
     <use xlink:href="#DejaVuSans-Bold-6e" x="139.714844"/>
     <use xlink:href="#DejaVuSans-Bold-75" x="210.90625"/>
     <use xlink:href="#DejaVuSans-Bold-73" x="282.097656"/>
    </g>
   </g>
   <g id="text_3">
    <!-- 0.95 -->
    <g style="fill: #696969" transform="translate(173.656412 212.101905) scale(0.1 -0.1)">
     <defs>
      <path id="DejaVuSans-Bold-39" d="M 641 103 
L 641 966 
Q 928 831 1190 764 
Q 1453 697 1709 697 
Q 2247 697 2547 995 
Q 2847 1294 2900 1881 
Q 2688 1725 2447 1647 
Q 2206 1569 1925 1569 
Q 1209 1569 770 1986 
Q 331 2403 331 3084 
Q 331 3838 820 4291 
Q 1309 4744 2131 4744 
Q 3044 4744 3544 4128 
Q 4044 3513 4044 2388 
Q 4044 1231 3459 570 
Q 2875 -91 1856 -91 
Q 1528 -91 1228 -42 
Q 928 6 641 103 
z
M 2125 2350 
Q 2441 2350 2600 2554 
Q 2759 2759 2759 3169 
Q 2759 3575 2600 3781 
Q 2441 3988 2125 3988 
Q 1809 3988 1650 3781 
Q 1491 3575 1491 3169 
Q 1491 2759 1650 2554 
Q 1809 2350 2125 2350 
z
" transform="scale(0.015625)"/>
      <path id="DejaVuSans-Bold-35" d="M 678 4666 
L 3669 4666 
L 3669 3781 
L 1638 3781 
L 1638 3059 
Q 1775 3097 1914 3117 
Q 2053 3138 2203 3138 
Q 3056 3138 3531 2711 
Q 4006 2284 4006 1522 
Q 4006 766 3489 337 
Q 2972 -91 2053 -91 
Q 1656 -91 1267 -14 
Q 878 63 494 219 
L 494 1166 
Q 875 947 1217 837 
Q 1559 728 1863 728 
Q 2300 728 2551 942 
Q 2803 1156 2803 1522 
Q 2803 1891 2551 2103 
Q 2300 2316 1863 2316 
Q 1603 2316 1309 2248 
Q 1016 2181 678 2041 
L 678 4666 
z
" transform="scale(0.015625)"/>
     </defs>
     <use xlink:href="#DejaVuSans-Bold-30"/>
     <use xlink:href="#DejaVuSans-Bold-2e" x="69.580078"/>
     <use xlink:href="#DejaVuSans-Bold-39" x="107.568359"/>
     <use xlink:href="#DejaVuSans-Bold-35" x="177.148438"/>
    </g>
   </g>
   <g id="text_4">
    <!-- Earth -->
    <g style="fill: #696969" transform="translate(230.923229 147.826176) scale(0.1 -0.1)">
     <defs>
      <path id="DejaVuSans-Bold-45" d="M 588 4666 
L 3834 4666 
L 3834 3756 
L 1791 3756 
L 1791 2888 
L 3713 2888 
L 3713 1978 
L 1791 1978 
L 1791 909 
L 3903 909 
L 3903 0 
L 588 0 
L 588 4666 
z
" transform="scale(0.015625)"/>
      <path id="DejaVuSans-Bold-72" d="M 3138 2547 
Q 2991 2616 2845 2648 
Q 2700 2681 2553 2681 
Q 2122 2681 1889 2404 
Q 1656 2128 1656 1613 
L 1656 0 
L 538 0 
L 538 3500 
L 1656 3500 
L 1656 2925 
Q 1872 3269 2151 3426 
Q 2431 3584 2822 3584 
Q 2878 3584 2943 3579 
Q 3009 3575 3134 3559 
L 3138 2547 
z
" transform="scale(0.015625)"/>
      <path id="DejaVuSans-Bold-68" d="M 4056 2131 
L 4056 0 
L 2931 0 
L 2931 347 
L 2931 1625 
Q 2931 2084 2911 2256 
Q 2891 2428 2841 2509 
Q 2775 2619 2662 2680 
Q 2550 2741 2406 2741 
Q 2056 2741 1856 2470 
Q 1656 2200 1656 1722 
L 1656 0 
L 538 0 
L 538 4863 
L 1656 4863 
L 1656 2988 
Q 1909 3294 2193 3439 
Q 2478 3584 2822 3584 
Q 3428 3584 3742 3212 
Q 4056 2841 4056 2131 
z
" transform="scale(0.015625)"/>
     </defs>
     <use xlink:href="#DejaVuSans-Bold-45"/>
     <use xlink:href="#DejaVuSans-Bold-61" x="68.310547"/>
     <use xlink:href="#DejaVuSans-Bold-72" x="135.791016"/>
     <use xlink:href="#DejaVuSans-Bold-74" x="185.107422"/>
     <use xlink:href="#DejaVuSans-Bold-68" x="232.910156"/>
    </g>
   </g>
   <g id="text_5">
    <!-- 1.00 -->
    <g style="fill: #696969" transform="translate(233.791979 212.173824) scale(0.1 -0.1)">
     <use xlink:href="#DejaVuSans-Bold-31"/>
     <use xlink:href="#DejaVuSans-Bold-2e" x="69.580078"/>
     <use xlink:href="#DejaVuSans-Bold-30" x="107.568359"/>
     <use xlink:href="#DejaVuSans-Bold-30" x="177.148438"/>
    </g>
   </g>
   <g id="text_6">
    <!-- Mars -->
    <g style="fill: #696969" transform="translate(292.028144 148.486144) scale(0.1 -0.1)">
     <defs>
      <path id="DejaVuSans-Bold-4d" d="M 588 4666 
L 2119 4666 
L 3181 2169 
L 4250 4666 
L 5778 4666 
L 5778 0 
L 4641 0 
L 4641 3413 
L 3566 897 
L 2803 897 
L 1728 3413 
L 1728 0 
L 588 0 
L 588 4666 
z
" transform="scale(0.015625)"/>
     </defs>
     <use xlink:href="#DejaVuSans-Bold-4d"/>
     <use xlink:href="#DejaVuSans-Bold-61" x="99.511719"/>
     <use xlink:href="#DejaVuSans-Bold-72" x="166.992188"/>
     <use xlink:href="#DejaVuSans-Bold-73" x="216.308594"/>
    </g>
   </g>
   <g id="text_7">
    <!-- 0.53 -->
    <g style="fill: #696969" transform="translate(293.483613 211.513856) scale(0.1 -0.1)">
     <defs>
      <path id="DejaVuSans-Bold-33" d="M 2981 2516 
Q 3453 2394 3698 2092 
Q 3944 1791 3944 1325 
Q 3944 631 3412 270 
Q 2881 -91 1863 -91 
Q 1503 -91 1142 -33 
Q 781 25 428 141 
L 428 1069 
Q 766 900 1098 814 
Q 1431 728 1753 728 
Q 2231 728 2486 893 
Q 2741 1059 2741 1369 
Q 2741 1688 2480 1852 
Q 2219 2016 1709 2016 
L 1228 2016 
L 1228 2791 
L 1734 2791 
Q 2188 2791 2409 2933 
Q 2631 3075 2631 3366 
Q 2631 3634 2415 3781 
Q 2200 3928 1806 3928 
Q 1516 3928 1219 3862 
Q 922 3797 628 3669 
L 628 4550 
Q 984 4650 1334 4700 
Q 1684 4750 2022 4750 
Q 2931 4750 3382 4451 
Q 3834 4153 3834 3553 
Q 3834 3144 3618 2883 
Q 3403 2622 2981 2516 
z
" transform="scale(0.015625)"/>
     </defs>
     <use xlink:href="#DejaVuSans-Bold-30"/>
     <use xlink:href="#DejaVuSans-Bold-2e" x="69.580078"/>
     <use xlink:href="#DejaVuSans-Bold-35" x="107.568359"/>
     <use xlink:href="#DejaVuSans-Bold-33" x="177.148438"/>
    </g>
   </g>
   <g id="text_8">
    <!-- Jupiter -->
    <g style="fill: #696969" transform="translate(357.42125 133.428157) scale(0.1 -0.1)">
     <defs>
      <path id="DejaVuSans-Bold-4a" d="M 588 4666 
L 1791 4666 
L 1791 453 
Q 1791 -419 1317 -850 
Q 844 -1281 -116 -1281 
L -359 -1281 
L -359 -372 
L -172 -372 
Q 203 -372 395 -162 
Q 588 47 588 453 
L 588 4666 
z
" transform="scale(0.015625)"/>
      <path id="DejaVuSans-Bold-70" d="M 1656 506 
L 1656 -1331 
L 538 -1331 
L 538 3500 
L 1656 3500 
L 1656 2988 
Q 1888 3294 2169 3439 
Q 2450 3584 2816 3584 
Q 3463 3584 3878 3070 
Q 4294 2556 4294 1747 
Q 4294 938 3878 423 
Q 3463 -91 2816 -91 
Q 2450 -91 2169 54 
Q 1888 200 1656 506 
z
M 2400 2772 
Q 2041 2772 1848 2508 
Q 1656 2244 1656 1747 
Q 1656 1250 1848 986 
Q 2041 722 2400 722 
Q 2759 722 2948 984 
Q 3138 1247 3138 1747 
Q 3138 2247 2948 2509 
Q 2759 2772 2400 2772 
z
" transform="scale(0.015625)"/>
      <path id="DejaVuSans-Bold-69" d="M 538 3500 
L 1656 3500 
L 1656 0 
L 538 0 
L 538 3500 
z
M 538 4863 
L 1656 4863 
L 1656 3950 
L 538 3950 
L 538 4863 
z
" transform="scale(0.015625)"/>
     </defs>
     <use xlink:href="#DejaVuSans-Bold-4a"/>
     <use xlink:href="#DejaVuSans-Bold-75" x="37.207031"/>
     <use xlink:href="#DejaVuSans-Bold-70" x="108.398438"/>
     <use xlink:href="#DejaVuSans-Bold-69" x="179.980469"/>
     <use xlink:href="#DejaVuSans-Bold-74" x="214.257812"/>
     <use xlink:href="#DejaVuSans-Bold-65" x="262.060547"/>
     <use xlink:href="#DejaVuSans-Bold-72" x="329.882812"/>
    </g>
   </g>
   <g id="text_9">
    <!-- 11.21 -->
    <g style="fill: #696969" transform="translate(360.565781 226.571843) scale(0.1 -0.1)">
     <defs>
      <path id="DejaVuSans-Bold-32" d="M 1844 884 
L 3897 884 
L 3897 0 
L 506 0 
L 506 884 
L 2209 2388 
Q 2438 2594 2547 2791 
Q 2656 2988 2656 3200 
Q 2656 3528 2436 3728 
Q 2216 3928 1850 3928 
Q 1569 3928 1234 3808 
Q 900 3688 519 3450 
L 519 4475 
Q 925 4609 1322 4679 
Q 1719 4750 2100 4750 
Q 2938 4750 3402 4381 
Q 3866 4013 3866 3353 
Q 3866 2972 3669 2642 
Q 3472 2313 2841 1759 
L 1844 884 
z
" transform="scale(0.015625)"/>
     </defs>
     <use xlink:href="#DejaVuSans-Bold-31"/>
     <use xlink:href="#DejaVuSans-Bold-31" x="69.580078"/>
     <use xlink:href="#DejaVuSans-Bold-2e" x="139.160156"/>
     <use xlink:href="#DejaVuSans-Bold-32" x="177.148438"/>
     <use xlink:href="#DejaVuSans-Bold-31" x="246.728516"/>
    </g>
   </g>
   <g id="text_10">
    <!-- Saturn -->
    <g style="fill: #696969" transform="translate(437.486475 135.910088) scale(0.1 -0.1)">
     <use xlink:href="#DejaVuSans-Bold-53"/>
     <use xlink:href="#DejaVuSans-Bold-61" x="72.021484"/>
     <use xlink:href="#DejaVuSans-Bold-74" x="139.501953"/>
     <use xlink:href="#DejaVuSans-Bold-75" x="187.304688"/>
     <use xlink:href="#DejaVuSans-Bold-72" x="258.496094"/>
     <use xlink:href="#DejaVuSans-Bold-6e" x="307.8125"/>
    </g>
   </g>
   <g id="text_11">
    <!-- 9.45 -->
    <g style="fill: #696969" transform="translate(444.099756 224.089912) scale(0.1 -0.1)">
     <defs>
      <path id="DejaVuSans-Bold-34" d="M 2356 3675 
L 1038 1722 
L 2356 1722 
L 2356 3675 
z
M 2156 4666 
L 3494 4666 
L 3494 1722 
L 4159 1722 
L 4159 850 
L 3494 850 
L 3494 0 
L 2356 0 
L 2356 850 
L 288 850 
L 288 1881 
L 2156 4666 
z
" transform="scale(0.015625)"/>
     </defs>
     <use xlink:href="#DejaVuSans-Bold-39"/>
     <use xlink:href="#DejaVuSans-Bold-2e" x="69.580078"/>
     <use xlink:href="#DejaVuSans-Bold-34" x="107.568359"/>
     <use xlink:href="#DejaVuSans-Bold-35" x="177.148438"/>
    </g>
   </g>
   <g id="text_12">
    <!-- Uranus -->
    <g style="fill: #696969" transform="translate(508.831199 143.58151) scale(0.1 -0.1)">
     <defs>
      <path id="DejaVuSans-Bold-55" d="M 588 4666 
L 1791 4666 
L 1791 1869 
Q 1791 1291 1980 1042 
Q 2169 794 2597 794 
Q 3028 794 3217 1042 
Q 3406 1291 3406 1869 
L 3406 4666 
L 4609 4666 
L 4609 1869 
Q 4609 878 4112 393 
Q 3616 -91 2597 -91 
Q 1581 -91 1084 393 
Q 588 878 588 1869 
L 588 4666 
z
" transform="scale(0.015625)"/>
     </defs>
     <use xlink:href="#DejaVuSans-Bold-55"/>
     <use xlink:href="#DejaVuSans-Bold-72" x="81.201172"/>
     <use xlink:href="#DejaVuSans-Bold-61" x="130.517578"/>
     <use xlink:href="#DejaVuSans-Bold-6e" x="197.998047"/>
     <use xlink:href="#DejaVuSans-Bold-75" x="269.189453"/>
     <use xlink:href="#DejaVuSans-Bold-73" x="340.380859"/>
    </g>
   </g>
   <g id="text_13">
    <!-- 4.01 -->
    <g style="fill: #696969" transform="translate(516.489793 216.41849) scale(0.1 -0.1)">
     <use xlink:href="#DejaVuSans-Bold-34"/>
     <use xlink:href="#DejaVuSans-Bold-2e" x="69.580078"/>
     <use xlink:href="#DejaVuSans-Bold-30" x="107.568359"/>
     <use xlink:href="#DejaVuSans-Bold-31" x="177.148438"/>
    </g>
   </g>
   <g id="text_14">
    <!-- Neptune -->
    <g style="fill: #696969" transform="translate(571.231326 143.764834) scale(0.1 -0.1)">
     <defs>
      <path id="DejaVuSans-Bold-4e" d="M 588 4666 
L 1931 4666 
L 3628 1466 
L 3628 4666 
L 4769 4666 
L 4769 0 
L 3425 0 
L 1728 3200 
L 1728 0 
L 588 0 
L 588 4666 
z
" transform="scale(0.015625)"/>
     </defs>
     <use xlink:href="#DejaVuSans-Bold-4e"/>
     <use xlink:href="#DejaVuSans-Bold-65" x="83.691406"/>
     <use xlink:href="#DejaVuSans-Bold-70" x="151.513672"/>
     <use xlink:href="#DejaVuSans-Bold-74" x="223.095703"/>
     <use xlink:href="#DejaVuSans-Bold-75" x="270.898438"/>
     <use xlink:href="#DejaVuSans-Bold-6e" x="342.089844"/>
     <use xlink:href="#DejaVuSans-Bold-65" x="413.28125"/>
    </g>
   </g>
   <g id="text_15">
    <!-- 3.88 -->
    <g style="fill: #696969" transform="translate(582.950076 216.235166) scale(0.1 -0.1)">
     <use xlink:href="#DejaVuSans-Bold-33"/>
     <use xlink:href="#DejaVuSans-Bold-2e" x="69.580078"/>
     <use xlink:href="#DejaVuSans-Bold-38" x="107.568359"/>
     <use xlink:href="#DejaVuSans-Bold-38" x="177.148438"/>
    </g>
   </g>
  </g>
 </g>
 <defs>
  <clipPath id="pda4af39eaa">
   <rect x="10.8" y="10.8" width="646.677299" height="338.4"/>
  </clipPath>
 </defs>
</svg>
