<?xml version="1.0" encoding="utf-8" standalone="no"?>
<!DOCTYPE svg PUBLIC "-//W3C//DTD SVG 1.1//EN"
  "http://www.w3.org/Graphics/SVG/1.1/DTD/svg11.dtd">
<svg height="360pt" version="1.1" viewBox="0 0 591.072009 360" width="591.072009pt" xmlns="http://www.w3.org/2000/svg" xmlns:xlink="http://www.w3.org/1999/xlink">
 <metadata>
  <rdf:RDF xmlns:cc="http://creativecommons.org/ns#" xmlns:dc="http://purl.org/dc/elements/1.1/" xmlns:rdf="http://www.w3.org/1999/02/22-rdf-syntax-ns#">
   <cc:Work>
    <dc:type rdf:resource="http://purl.org/dc/dcmitype/StillImage"/>
    <dc:date>2023-07-25T21:02:00.292366</dc:date>
    <dc:format>image/svg+xml</dc:format>
    <dc:creator>
     <cc:Agent>
      <dc:title>Matplotlib v3.4.3, https://matplotlib.org/</dc:title>
     </cc:Agent>
    </dc:creator>
   </cc:Work>
  </rdf:RDF>
 </metadata>
 <defs>
  <style type="text/css">*{stroke-linecap:butt;stroke-linejoin:round;}</style>
 </defs>
 <g id="figure_1">
  <g id="patch_1">
   <path d="M 0 360 
L 591.072009 360 
L 591.072009 0 
L 0 0 
z
" style="fill:#ffffff;"/>
  </g>
  <g id="axes_1">
   <g id="patch_2">
    <path d="M 10.8 349.2 
L 580.272009 349.2 
L 580.272009 10.8 
L 10.8 10.8 
z
" style="fill:#ffffff;"/>
   </g>
   <g id="PathCollection_1">
    <defs>
     <path d="M 0 111.803399 
C 29.650608 111.803399 58.090796 100.023087 79.056942 79.056942 
C 100.023087 58.090796 111.803399 29.650608 111.803399 0 
C 111.803399 -29.650608 100.023087 -58.090796 79.056942 -79.056942 
C 58.090796 -100.023087 29.650608 -111.803399 0 -111.803399 
C -29.650608 -111.803399 -58.090796 -100.023087 -79.056942 -79.056942 
C -100.023087 -58.090796 -111.803399 -29.650608 -111.803399 0 
C -111.803399 29.650608 -100.023087 58.090796 -79.056942 79.056942 
C -58.090796 100.023087 -29.650608 111.803399 0 111.803399 
z
" id="m28c4110e9b" style="stroke:#680000;stroke-width:10;"/>
    </defs>
    <g clip-path="url(#pd5ade8be5c)">
     <use style="fill:#ff4100;stroke:#680000;stroke-width:10;" x="10.8" xlink:href="#m28c4110e9b" y="180"/>
    </g>
   </g>
   <g id="PathCollection_2">
    <defs>
     <path d="M 0 9.53251 
C 2.528051 9.53251 4.9529 8.528105 6.740503 6.740503 
C 8.528105 4.9529 9.53251 2.528051 9.53251 0 
C 9.53251 -2.528051 8.528105 -4.9529 6.740503 -6.740503 
C 4.9529 -8.528105 2.528051 -9.53251 0 -9.53251 
C -2.528051 -9.53251 -4.9529 -8.528105 -6.740503 -6.740503 
C -8.528105 -4.9529 -9.53251 -2.528051 -9.53251 0 
C -9.53251 2.528051 -8.528105 4.9529 -6.740503 6.740503 
C -4.9529 8.528105 -2.528051 9.53251 0 9.53251 
z
" id="m96122cb471" style="stroke:#000000;"/>
    </defs>
    <g clip-path="url(#pd5ade8be5c)">
     <use style="stroke:#000000;" x="162.282068" xlink:href="#m96122cb471" y="180"/>
    </g>
   </g>
   <g id="PathCollection_3">
    <defs>
     <path d="M 0 9.370218 
C 2.485011 9.370218 4.868577 8.382913 6.625745 6.625745 
C 8.382913 4.868577 9.370218 2.485011 9.370218 0 
C 9.370218 -2.485011 8.382913 -4.868577 6.625745 -6.625745 
C 4.868577 -8.382913 2.485011 -9.370218 0 -9.370218 
C -2.485011 -9.370218 -4.868577 -8.382913 -6.625745 -6.625745 
C -8.382913 -4.868577 -9.370218 -2.485011 -9.370218 0 
C -9.370218 2.485011 -8.382913 4.868577 -6.625745 6.625745 
C -4.868577 8.382913 -2.485011 9.370218 0 9.370218 
z
" id="m464f64963b" style="stroke:#000000;"/>
    </defs>
    <g clip-path="url(#pd5ade8be5c)">
     <use style="stroke:#000000;" x="222.435096" xlink:href="#m464f64963b" y="180"/>
    </g>
   </g>
   <g id="PathCollection_4">
    <defs>
     <path d="M 0 6.73084 
C 1.78504 6.73084 3.497209 6.021637 4.759423 4.759423 
C 6.021637 3.497209 6.73084 1.78504 6.73084 0 
C 6.73084 -1.78504 6.021637 -3.497209 4.759423 -4.759423 
C 3.497209 -6.021637 1.78504 -6.73084 0 -6.73084 
C -1.78504 -6.73084 -3.497209 -6.021637 -4.759423 -4.759423 
C -6.021637 -3.497209 -6.73084 -1.78504 -6.73084 0 
C -6.73084 1.78504 -6.021637 3.497209 -4.759423 4.759423 
C -3.497209 6.021637 -1.78504 6.73084 0 6.73084 
z
" id="m9221ddde4e" style="stroke:#000000;"/>
    </defs>
    <g clip-path="url(#pd5ade8be5c)">
     <use style="stroke:#000000;" x="282.240463" xlink:href="#m9221ddde4e" y="180"/>
    </g>
   </g>
   <g id="PathCollection_5">
    <defs>
     <path d="M 0 7.858342 
C 2.084057 7.858342 4.083036 7.030337 5.556687 5.556687 
C 7.030337 4.083036 7.858342 2.084057 7.858342 0 
C 7.858342 -2.084057 7.030337 -4.083036 5.556687 -5.556687 
C 4.083036 -7.030337 2.084057 -7.858342 0 -7.858342 
C -2.084057 -7.858342 -4.083036 -7.030337 -5.556687 -5.556687 
C -7.030337 -4.083036 -7.858342 -2.084057 -7.858342 0 
C -7.858342 2.084057 -7.030337 4.083036 -5.556687 5.556687 
C -4.083036 7.030337 -2.084057 7.858342 0 7.858342 
z
" id="m96317dc952" style="stroke:#000000;"/>
    </defs>
    <g clip-path="url(#pd5ade8be5c)">
     <use style="stroke:#000000;" x="341.858219" xlink:href="#m96317dc952" y="180"/>
    </g>
   </g>
   <g id="PathCollection_6">
    <defs>
     <path d="M 0 8.926051 
C 2.367216 8.926051 4.637797 7.985546 6.311671 6.311671 
C 7.985546 4.637797 8.926051 2.367216 8.926051 0 
C 8.926051 -2.367216 7.985546 -4.637797 6.311671 -6.311671 
C 4.637797 -7.985546 2.367216 -8.926051 0 -8.926051 
C -2.367216 -8.926051 -4.637797 -7.985546 -6.311671 -6.311671 
C -7.985546 -4.637797 -8.926051 -2.367216 -8.926051 0 
C -8.926051 2.367216 -7.985546 4.637797 -6.311671 6.311671 
C -4.637797 7.985546 -2.367216 8.926051 0 8.926051 
z
" id="m88e856c4ef" style="stroke:#000000;"/>
    </defs>
    <g clip-path="url(#pd5ade8be5c)">
     <use style="stroke:#000000;" x="401.748381" xlink:href="#m88e856c4ef" y="180"/>
    </g>
   </g>
   <g id="PathCollection_7">
    <defs>
     <path d="M 0 9.643552 
C 2.5575 9.643552 5.010595 8.627446 6.819021 6.819021 
C 8.627446 5.010595 9.643552 2.5575 9.643552 0 
C 9.643552 -2.5575 8.627446 -5.010595 6.819021 -6.819021 
C 5.010595 -8.627446 2.5575 -9.643552 0 -9.643552 
C -2.5575 -9.643552 -5.010595 -8.627446 -6.819021 -6.819021 
C -8.627446 -5.010595 -9.643552 -2.5575 -9.643552 0 
C -9.643552 2.5575 -8.627446 5.010595 -6.819021 6.819021 
C -5.010595 8.627446 -2.5575 9.643552 0 9.643552 
z
" id="m6859aa39b4" style="stroke:#000000;"/>
    </defs>
    <g clip-path="url(#pd5ade8be5c)">
     <use style="stroke:#000000;" x="461.860071" xlink:href="#m6859aa39b4" y="180"/>
    </g>
   </g>
   <g id="PathCollection_8">
    <defs>
     <path d="M 0 6.448965 
C 1.710286 6.448965 3.350753 5.769462 4.560107 4.560107 
C 5.769462 3.350753 6.448965 1.710286 6.448965 0 
C 6.448965 -1.710286 5.769462 -3.350753 4.560107 -4.560107 
C 3.350753 -5.769462 1.710286 -6.448965 0 -6.448965 
C -1.710286 -6.448965 -3.350753 -5.769462 -4.560107 -4.560107 
C -5.769462 -3.350753 -6.448965 -1.710286 -6.448965 0 
C -6.448965 1.710286 -5.769462 3.350753 -4.560107 4.560107 
C -3.350753 5.769462 -1.710286 6.448965 0 6.448965 
z
" id="m2a8da59709" style="stroke:#000000;"/>
    </defs>
    <g clip-path="url(#pd5ade8be5c)">
     <use style="stroke:#000000;" x="521.664378" xlink:href="#m2a8da59709" y="180"/>
    </g>
   </g>
   <g id="matplotlib.axis_1">
    <g id="xtick_1"/>
    <g id="xtick_2"/>
    <g id="xtick_3"/>
    <g id="xtick_4"/>
    <g id="xtick_5"/>
   </g>
   <g id="matplotlib.axis_2">
    <g id="ytick_1"/>
    <g id="ytick_2"/>
    <g id="ytick_3"/>
    <g id="ytick_4"/>
    <g id="ytick_5"/>
    <g id="ytick_6"/>
    <g id="ytick_7"/>
   </g>
   <g id="patch_3">
    <path d="M 10.8 349.2 
L 10.8 10.8 
" style="fill:none;stroke:#000000;stroke-linecap:square;stroke-linejoin:miter;stroke-width:1.5;"/>
   </g>
   <g id="patch_4">
    <path d="M 580.272009 349.2 
L 580.272009 10.8 
" style="fill:none;stroke:#000000;stroke-linecap:square;stroke-linejoin:miter;stroke-width:1.5;"/>
   </g>
   <g id="patch_5">
    <path d="M 10.8 349.2 
L 580.272009 349.2 
" style="fill:none;stroke:#000000;stroke-linecap:square;stroke-linejoin:miter;stroke-width:1.5;"/>
   </g>
   <g id="patch_6">
    <path d="M 10.8 10.8 
L 580.272009 10.8 
" style="fill:none;stroke:#000000;stroke-linecap:square;stroke-linejoin:miter;stroke-width:1.5;"/>
   </g>
   <g id="text_1">
    <!-- TRAPPIST-1 -->
    <g style="fill:#4e0000;" transform="translate(16.580737 160.36375)scale(0.1 -0.1)">
     <defs>
      <path d="M 31 4666 
L 4331 4666 
L 4331 3756 
L 2784 3756 
L 2784 0 
L 1581 0 
L 1581 3756 
L 31 3756 
L 31 4666 
z
" id="DejaVuSans-Bold-54" transform="scale(0.015625)"/>
      <path d="M 2297 2597 
Q 2675 2597 2839 2737 
Q 3003 2878 3003 3200 
Q 3003 3519 2839 3656 
Q 2675 3794 2297 3794 
L 1791 3794 
L 1791 2597 
L 2297 2597 
z
M 1791 1766 
L 1791 0 
L 588 0 
L 588 4666 
L 2425 4666 
Q 3347 4666 3776 4356 
Q 4206 4047 4206 3378 
Q 4206 2916 3982 2619 
Q 3759 2322 3309 2181 
Q 3556 2125 3751 1926 
Q 3947 1728 4147 1325 
L 4800 0 
L 3519 0 
L 2950 1159 
Q 2778 1509 2601 1637 
Q 2425 1766 2131 1766 
L 1791 1766 
z
" id="DejaVuSans-Bold-52" transform="scale(0.015625)"/>
      <path d="M 3419 850 
L 1538 850 
L 1241 0 
L 31 0 
L 1759 4666 
L 3194 4666 
L 4922 0 
L 3713 0 
L 3419 850 
z
M 1838 1716 
L 3116 1716 
L 2478 3572 
L 1838 1716 
z
" id="DejaVuSans-Bold-41" transform="scale(0.015625)"/>
      <path d="M 588 4666 
L 2584 4666 
Q 3475 4666 3951 4270 
Q 4428 3875 4428 3144 
Q 4428 2409 3951 2014 
Q 3475 1619 2584 1619 
L 1791 1619 
L 1791 0 
L 588 0 
L 588 4666 
z
M 1791 3794 
L 1791 2491 
L 2456 2491 
Q 2806 2491 2997 2661 
Q 3188 2831 3188 3144 
Q 3188 3456 2997 3625 
Q 2806 3794 2456 3794 
L 1791 3794 
z
" id="DejaVuSans-Bold-50" transform="scale(0.015625)"/>
      <path d="M 588 4666 
L 1791 4666 
L 1791 0 
L 588 0 
L 588 4666 
z
" id="DejaVuSans-Bold-49" transform="scale(0.015625)"/>
      <path d="M 3834 4519 
L 3834 3531 
Q 3450 3703 3084 3790 
Q 2719 3878 2394 3878 
Q 1963 3878 1756 3759 
Q 1550 3641 1550 3391 
Q 1550 3203 1689 3098 
Q 1828 2994 2194 2919 
L 2706 2816 
Q 3484 2659 3812 2340 
Q 4141 2022 4141 1434 
Q 4141 663 3683 286 
Q 3225 -91 2284 -91 
Q 1841 -91 1394 -6 
Q 947 78 500 244 
L 500 1259 
Q 947 1022 1364 901 
Q 1781 781 2169 781 
Q 2563 781 2772 912 
Q 2981 1044 2981 1288 
Q 2981 1506 2839 1625 
Q 2697 1744 2272 1838 
L 1806 1941 
Q 1106 2091 782 2419 
Q 459 2747 459 3303 
Q 459 4000 909 4375 
Q 1359 4750 2203 4750 
Q 2588 4750 2994 4692 
Q 3400 4634 3834 4519 
z
" id="DejaVuSans-Bold-53" transform="scale(0.015625)"/>
      <path d="M 347 2297 
L 2309 2297 
L 2309 1388 
L 347 1388 
L 347 2297 
z
" id="DejaVuSans-Bold-2d" transform="scale(0.015625)"/>
      <path d="M 750 831 
L 1813 831 
L 1813 3847 
L 722 3622 
L 722 4441 
L 1806 4666 
L 2950 4666 
L 2950 831 
L 4013 831 
L 4013 0 
L 750 0 
L 750 831 
z
" id="DejaVuSans-Bold-31" transform="scale(0.015625)"/>
     </defs>
     <use xlink:href="#DejaVuSans-Bold-54"/>
     <use x="68.212891" xlink:href="#DejaVuSans-Bold-52"/>
     <use x="145.214844" xlink:href="#DejaVuSans-Bold-41"/>
     <use x="222.607422" xlink:href="#DejaVuSans-Bold-50"/>
     <use x="295.898438" xlink:href="#DejaVuSans-Bold-50"/>
     <use x="369.189453" xlink:href="#DejaVuSans-Bold-49"/>
     <use x="406.396484" xlink:href="#DejaVuSans-Bold-53"/>
     <use x="478.417969" xlink:href="#DejaVuSans-Bold-54"/>
     <use x="531.880859" xlink:href="#DejaVuSans-Bold-2d"/>
     <use x="573.384766" xlink:href="#DejaVuSans-Bold-31"/>
    </g>
    <!--  -->
    <g style="fill:#4e0000;" transform="translate(16.580737 171.561563)scale(0.1 -0.1)"/>
    <!-- 0.12 R$_\odot$ -->
    <g style="fill:#4e0000;" transform="translate(16.580737 182.759375)scale(0.1 -0.1)">
     <defs>
      <path d="M 2944 2338 
Q 2944 3213 2780 3570 
Q 2616 3928 2228 3928 
Q 1841 3928 1675 3570 
Q 1509 3213 1509 2338 
Q 1509 1453 1675 1090 
Q 1841 728 2228 728 
Q 2613 728 2778 1090 
Q 2944 1453 2944 2338 
z
M 4147 2328 
Q 4147 1169 3647 539 
Q 3147 -91 2228 -91 
Q 1306 -91 806 539 
Q 306 1169 306 2328 
Q 306 3491 806 4120 
Q 1306 4750 2228 4750 
Q 3147 4750 3647 4120 
Q 4147 3491 4147 2328 
z
" id="DejaVuSans-Bold-30" transform="scale(0.015625)"/>
      <path d="M 653 1209 
L 1778 1209 
L 1778 0 
L 653 0 
L 653 1209 
z
" id="DejaVuSans-Bold-2e" transform="scale(0.015625)"/>
      <path d="M 1844 884 
L 3897 884 
L 3897 0 
L 506 0 
L 506 884 
L 2209 2388 
Q 2438 2594 2547 2791 
Q 2656 2988 2656 3200 
Q 2656 3528 2436 3728 
Q 2216 3928 1850 3928 
Q 1569 3928 1234 3808 
Q 900 3688 519 3450 
L 519 4475 
Q 925 4609 1322 4679 
Q 1719 4750 2100 4750 
Q 2938 4750 3402 4381 
Q 3866 4013 3866 3353 
Q 3866 2972 3669 2642 
Q 3472 2313 2841 1759 
L 1844 884 
z
" id="DejaVuSans-Bold-32" transform="scale(0.015625)"/>
      <path id="DejaVuSans-Bold-20" transform="scale(0.015625)"/>
      <path d="M 2350 2403 
L 3013 2403 
L 3013 1609 
L 2350 1609 
L 2350 2403 
z
M 3306 3522 
Q 3016 3644 2681 3644 
Q 2347 3644 2056 3522 
Q 1769 3400 1531 3163 
Q 1291 2922 1172 2634 
Q 1053 2347 1053 2006 
Q 1053 1675 1172 1387 
Q 1291 1100 1531 859 
Q 1769 622 2056 500 
Q 2347 378 2681 378 
Q 3016 378 3306 500 
Q 3594 622 3831 859 
Q 4072 1100 4190 1387 
Q 4309 1675 4309 2006 
Q 4309 2347 4190 2634 
Q 4072 2922 3831 3163 
Q 3594 3400 3306 3522 
z
M 1878 3956 
Q 2250 4113 2681 4113 
Q 3113 4113 3484 3956 
Q 3856 3800 4163 3494 
Q 4472 3184 4625 2813 
Q 4778 2444 4778 2006 
Q 4778 1578 4625 1206 
Q 4472 838 4163 528 
Q 3856 222 3484 65 
Q 3113 -91 2681 -91 
Q 2250 -91 1878 65 
Q 1506 222 1200 528 
Q 891 838 738 1206 
Q 584 1578 584 2006 
Q 584 2444 738 2813 
Q 891 3184 1200 3494 
Q 1506 3800 1878 3956 
z
" id="DejaVuSans-2299" transform="scale(0.015625)"/>
     </defs>
     <use transform="translate(0 0.78125)" xlink:href="#DejaVuSans-Bold-30"/>
     <use transform="translate(69.580078 0.78125)" xlink:href="#DejaVuSans-Bold-2e"/>
     <use transform="translate(107.568359 0.78125)" xlink:href="#DejaVuSans-Bold-31"/>
     <use transform="translate(177.148438 0.78125)" xlink:href="#DejaVuSans-Bold-32"/>
     <use transform="translate(246.728516 0.78125)" xlink:href="#DejaVuSans-Bold-20"/>
     <use transform="translate(281.542969 0.78125)" xlink:href="#DejaVuSans-Bold-52"/>
     <use transform="translate(373.139648 -15.625)scale(0.7)" xlink:href="#DejaVuSans-2299"/>
    </g>
    <!--  -->
    <g style="fill:#4e0000;" transform="translate(16.580737 193.957188)scale(0.1 -0.1)"/>
    <!-- 7 Planets -->
    <g style="fill:#4e0000;" transform="translate(16.580737 205.155)scale(0.1 -0.1)">
     <defs>
      <path d="M 428 4666 
L 3944 4666 
L 3944 3988 
L 2125 0 
L 953 0 
L 2675 3781 
L 428 3781 
L 428 4666 
z
" id="DejaVuSans-Bold-37" transform="scale(0.015625)"/>
      <path d="M 538 4863 
L 1656 4863 
L 1656 0 
L 538 0 
L 538 4863 
z
" id="DejaVuSans-Bold-6c" transform="scale(0.015625)"/>
      <path d="M 2106 1575 
Q 1756 1575 1579 1456 
Q 1403 1338 1403 1106 
Q 1403 894 1545 773 
Q 1688 653 1941 653 
Q 2256 653 2472 879 
Q 2688 1106 2688 1447 
L 2688 1575 
L 2106 1575 
z
M 3816 1997 
L 3816 0 
L 2688 0 
L 2688 519 
Q 2463 200 2181 54 
Q 1900 -91 1497 -91 
Q 953 -91 614 226 
Q 275 544 275 1050 
Q 275 1666 698 1953 
Q 1122 2241 2028 2241 
L 2688 2241 
L 2688 2328 
Q 2688 2594 2478 2717 
Q 2269 2841 1825 2841 
Q 1466 2841 1156 2769 
Q 847 2697 581 2553 
L 581 3406 
Q 941 3494 1303 3539 
Q 1666 3584 2028 3584 
Q 2975 3584 3395 3211 
Q 3816 2838 3816 1997 
z
" id="DejaVuSans-Bold-61" transform="scale(0.015625)"/>
      <path d="M 4056 2131 
L 4056 0 
L 2931 0 
L 2931 347 
L 2931 1631 
Q 2931 2084 2911 2256 
Q 2891 2428 2841 2509 
Q 2775 2619 2662 2680 
Q 2550 2741 2406 2741 
Q 2056 2741 1856 2470 
Q 1656 2200 1656 1722 
L 1656 0 
L 538 0 
L 538 3500 
L 1656 3500 
L 1656 2988 
Q 1909 3294 2193 3439 
Q 2478 3584 2822 3584 
Q 3428 3584 3742 3212 
Q 4056 2841 4056 2131 
z
" id="DejaVuSans-Bold-6e" transform="scale(0.015625)"/>
      <path d="M 4031 1759 
L 4031 1441 
L 1416 1441 
Q 1456 1047 1700 850 
Q 1944 653 2381 653 
Q 2734 653 3104 758 
Q 3475 863 3866 1075 
L 3866 213 
Q 3469 63 3072 -14 
Q 2675 -91 2278 -91 
Q 1328 -91 801 392 
Q 275 875 275 1747 
Q 275 2603 792 3093 
Q 1309 3584 2216 3584 
Q 3041 3584 3536 3087 
Q 4031 2591 4031 1759 
z
M 2881 2131 
Q 2881 2450 2695 2645 
Q 2509 2841 2209 2841 
Q 1884 2841 1681 2658 
Q 1478 2475 1428 2131 
L 2881 2131 
z
" id="DejaVuSans-Bold-65" transform="scale(0.015625)"/>
      <path d="M 1759 4494 
L 1759 3500 
L 2913 3500 
L 2913 2700 
L 1759 2700 
L 1759 1216 
Q 1759 972 1856 886 
Q 1953 800 2241 800 
L 2816 800 
L 2816 0 
L 1856 0 
Q 1194 0 917 276 
Q 641 553 641 1216 
L 641 2700 
L 84 2700 
L 84 3500 
L 641 3500 
L 641 4494 
L 1759 4494 
z
" id="DejaVuSans-Bold-74" transform="scale(0.015625)"/>
      <path d="M 3272 3391 
L 3272 2541 
Q 2913 2691 2578 2766 
Q 2244 2841 1947 2841 
Q 1628 2841 1473 2761 
Q 1319 2681 1319 2516 
Q 1319 2381 1436 2309 
Q 1553 2238 1856 2203 
L 2053 2175 
Q 2913 2066 3209 1816 
Q 3506 1566 3506 1031 
Q 3506 472 3093 190 
Q 2681 -91 1863 -91 
Q 1516 -91 1145 -36 
Q 775 19 384 128 
L 384 978 
Q 719 816 1070 734 
Q 1422 653 1784 653 
Q 2113 653 2278 743 
Q 2444 834 2444 1013 
Q 2444 1163 2330 1236 
Q 2216 1309 1875 1350 
L 1678 1375 
Q 931 1469 631 1722 
Q 331 1975 331 2491 
Q 331 3047 712 3315 
Q 1094 3584 1881 3584 
Q 2191 3584 2531 3537 
Q 2872 3491 3272 3391 
z
" id="DejaVuSans-Bold-73" transform="scale(0.015625)"/>
     </defs>
     <use xlink:href="#DejaVuSans-Bold-37"/>
     <use x="69.580078" xlink:href="#DejaVuSans-Bold-20"/>
     <use x="104.394531" xlink:href="#DejaVuSans-Bold-50"/>
     <use x="177.685547" xlink:href="#DejaVuSans-Bold-6c"/>
     <use x="211.962891" xlink:href="#DejaVuSans-Bold-61"/>
     <use x="279.443359" xlink:href="#DejaVuSans-Bold-6e"/>
     <use x="350.634766" xlink:href="#DejaVuSans-Bold-65"/>
     <use x="418.457031" xlink:href="#DejaVuSans-Bold-74"/>
     <use x="466.259766" xlink:href="#DejaVuSans-Bold-73"/>
    </g>
   </g>
   <g id="text_2">
    <!-- b -->
    <g style="fill:#696969;" transform="translate(158.703162 147.822518)scale(0.1 -0.1)">
     <defs>
      <path d="M 2400 722 
Q 2759 722 2948 984 
Q 3138 1247 3138 1747 
Q 3138 2247 2948 2509 
Q 2759 2772 2400 2772 
Q 2041 2772 1848 2508 
Q 1656 2244 1656 1747 
Q 1656 1250 1848 986 
Q 2041 722 2400 722 
z
M 1656 2988 
Q 1888 3294 2169 3439 
Q 2450 3584 2816 3584 
Q 3463 3584 3878 3070 
Q 4294 2556 4294 1747 
Q 4294 938 3878 423 
Q 3463 -91 2816 -91 
Q 2450 -91 2169 54 
Q 1888 200 1656 506 
L 1656 0 
L 538 0 
L 538 4863 
L 1656 4863 
L 1656 2988 
z
" id="DejaVuSans-Bold-62" transform="scale(0.015625)"/>
     </defs>
     <use xlink:href="#DejaVuSans-Bold-62"/>
    </g>
   </g>
   <g id="text_3">
    <!-- 1.12 -->
    <g style="fill:#696969;" transform="translate(149.946131 212.177482)scale(0.1 -0.1)">
     <use xlink:href="#DejaVuSans-Bold-31"/>
     <use x="69.580078" xlink:href="#DejaVuSans-Bold-2e"/>
     <use x="107.568359" xlink:href="#DejaVuSans-Bold-31"/>
     <use x="177.148438" xlink:href="#DejaVuSans-Bold-32"/>
    </g>
   </g>
   <g id="text_4">
    <!-- c -->
    <g style="fill:#696969;" transform="translate(219.471034 147.986257)scale(0.1 -0.1)">
     <defs>
      <path d="M 3366 3391 
L 3366 2478 
Q 3138 2634 2908 2709 
Q 2678 2784 2431 2784 
Q 1963 2784 1702 2511 
Q 1441 2238 1441 1747 
Q 1441 1256 1702 982 
Q 1963 709 2431 709 
Q 2694 709 2930 787 
Q 3166 866 3366 1019 
L 3366 103 
Q 3103 6 2833 -42 
Q 2563 -91 2291 -91 
Q 1344 -91 809 395 
Q 275 881 275 1747 
Q 275 2613 809 3098 
Q 1344 3584 2291 3584 
Q 2566 3584 2833 3536 
Q 3100 3488 3366 3391 
z
" id="DejaVuSans-Bold-63" transform="scale(0.015625)"/>
     </defs>
     <use xlink:href="#DejaVuSans-Bold-63"/>
    </g>
   </g>
   <g id="text_5">
    <!-- 1.10 -->
    <g style="fill:#696969;" transform="translate(210.099159 212.013743)scale(0.1 -0.1)">
     <use xlink:href="#DejaVuSans-Bold-31"/>
     <use x="69.580078" xlink:href="#DejaVuSans-Bold-2e"/>
     <use x="107.568359" xlink:href="#DejaVuSans-Bold-31"/>
     <use x="177.148438" xlink:href="#DejaVuSans-Bold-30"/>
    </g>
   </g>
   <g id="text_6">
    <!-- d -->
    <g style="fill:#696969;" transform="translate(278.661556 150.649162)scale(0.1 -0.1)">
     <defs>
      <path d="M 2919 2988 
L 2919 4863 
L 4044 4863 
L 4044 0 
L 2919 0 
L 2919 506 
Q 2688 197 2409 53 
Q 2131 -91 1766 -91 
Q 1119 -91 703 423 
Q 288 938 288 1747 
Q 288 2556 703 3070 
Q 1119 3584 1766 3584 
Q 2128 3584 2408 3439 
Q 2688 3294 2919 2988 
z
M 2181 722 
Q 2541 722 2730 984 
Q 2919 1247 2919 1747 
Q 2919 2247 2730 2509 
Q 2541 2772 2181 2772 
Q 1825 2772 1636 2509 
Q 1447 2247 1447 1747 
Q 1447 1247 1636 984 
Q 1825 722 2181 722 
z
" id="DejaVuSans-Bold-64" transform="scale(0.015625)"/>
     </defs>
     <use xlink:href="#DejaVuSans-Bold-64"/>
    </g>
   </g>
   <g id="text_7">
    <!-- 0.79 -->
    <g style="fill:#696969;" transform="translate(269.904525 209.350838)scale(0.1 -0.1)">
     <defs>
      <path d="M 641 103 
L 641 966 
Q 928 831 1190 764 
Q 1453 697 1709 697 
Q 2247 697 2547 995 
Q 2847 1294 2900 1881 
Q 2688 1725 2447 1647 
Q 2206 1569 1925 1569 
Q 1209 1569 770 1986 
Q 331 2403 331 3084 
Q 331 3838 820 4291 
Q 1309 4744 2131 4744 
Q 3044 4744 3544 4128 
Q 4044 3513 4044 2388 
Q 4044 1231 3459 570 
Q 2875 -91 1856 -91 
Q 1528 -91 1228 -42 
Q 928 6 641 103 
z
M 2125 2350 
Q 2441 2350 2600 2554 
Q 2759 2759 2759 3169 
Q 2759 3575 2600 3781 
Q 2441 3988 2125 3988 
Q 1809 3988 1650 3781 
Q 1491 3575 1491 3169 
Q 1491 2759 1650 2554 
Q 1809 2350 2125 2350 
z
" id="DejaVuSans-Bold-39" transform="scale(0.015625)"/>
     </defs>
     <use xlink:href="#DejaVuSans-Bold-30"/>
     <use x="69.580078" xlink:href="#DejaVuSans-Bold-2e"/>
     <use x="107.568359" xlink:href="#DejaVuSans-Bold-37"/>
     <use x="177.148438" xlink:href="#DejaVuSans-Bold-39"/>
    </g>
   </g>
   <g id="text_8">
    <!-- e -->
    <g style="fill:#696969;" transform="translate(338.466813 149.51161)scale(0.1 -0.1)">
     <use xlink:href="#DejaVuSans-Bold-65"/>
    </g>
   </g>
   <g id="text_9">
    <!-- 0.92 -->
    <g style="fill:#696969;" transform="translate(329.522282 210.48839)scale(0.1 -0.1)">
     <use xlink:href="#DejaVuSans-Bold-30"/>
     <use x="69.580078" xlink:href="#DejaVuSans-Bold-2e"/>
     <use x="107.568359" xlink:href="#DejaVuSans-Bold-39"/>
     <use x="177.148438" xlink:href="#DejaVuSans-Bold-32"/>
    </g>
   </g>
   <g id="text_10">
    <!-- f -->
    <g style="fill:#696969;" transform="translate(399.573381 148.434383)scale(0.1 -0.1)">
     <defs>
      <path d="M 2841 4863 
L 2841 4128 
L 2222 4128 
Q 1984 4128 1890 4042 
Q 1797 3956 1797 3744 
L 1797 3500 
L 2753 3500 
L 2753 2700 
L 1797 2700 
L 1797 0 
L 678 0 
L 678 2700 
L 122 2700 
L 122 3500 
L 678 3500 
L 678 3744 
Q 678 4316 997 4589 
Q 1316 4863 1984 4863 
L 2841 4863 
z
" id="DejaVuSans-Bold-66" transform="scale(0.015625)"/>
     </defs>
     <use xlink:href="#DejaVuSans-Bold-66"/>
    </g>
   </g>
   <g id="text_11">
    <!-- 1.04 -->
    <g style="fill:#696969;" transform="translate(389.412444 211.565617)scale(0.1 -0.1)">
     <defs>
      <path d="M 2356 3675 
L 1038 1722 
L 2356 1722 
L 2356 3675 
z
M 2156 4666 
L 3494 4666 
L 3494 1722 
L 4159 1722 
L 4159 850 
L 3494 850 
L 3494 0 
L 2356 0 
L 2356 850 
L 288 850 
L 288 1881 
L 2156 4666 
z
" id="DejaVuSans-Bold-34" transform="scale(0.015625)"/>
     </defs>
     <use xlink:href="#DejaVuSans-Bold-31"/>
     <use x="69.580078" xlink:href="#DejaVuSans-Bold-2e"/>
     <use x="107.568359" xlink:href="#DejaVuSans-Bold-30"/>
     <use x="177.148438" xlink:href="#DejaVuSans-Bold-34"/>
    </g>
   </g>
   <g id="text_12">
    <!-- g -->
    <g style="fill:#696969;" transform="translate(458.281165 147.710487)scale(0.1 -0.1)">
     <defs>
      <path d="M 2919 594 
Q 2688 288 2409 144 
Q 2131 0 1766 0 
Q 1125 0 706 504 
Q 288 1009 288 1791 
Q 288 2575 706 3076 
Q 1125 3578 1766 3578 
Q 2131 3578 2409 3434 
Q 2688 3291 2919 2981 
L 2919 3500 
L 4044 3500 
L 4044 353 
Q 4044 -491 3511 -936 
Q 2978 -1381 1966 -1381 
Q 1638 -1381 1331 -1331 
Q 1025 -1281 716 -1178 
L 716 -306 
Q 1009 -475 1290 -558 
Q 1572 -641 1856 -641 
Q 2406 -641 2662 -400 
Q 2919 -159 2919 353 
L 2919 594 
z
M 2181 2772 
Q 1834 2772 1640 2515 
Q 1447 2259 1447 1791 
Q 1447 1309 1634 1061 
Q 1822 813 2181 813 
Q 2531 813 2725 1069 
Q 2919 1325 2919 1791 
Q 2919 2259 2725 2515 
Q 2531 2772 2181 2772 
z
" id="DejaVuSans-Bold-67" transform="scale(0.015625)"/>
     </defs>
     <use xlink:href="#DejaVuSans-Bold-67"/>
    </g>
   </g>
   <g id="text_13">
    <!-- 1.13 -->
    <g style="fill:#696969;" transform="translate(449.524134 212.289513)scale(0.1 -0.1)">
     <defs>
      <path d="M 2981 2516 
Q 3453 2394 3698 2092 
Q 3944 1791 3944 1325 
Q 3944 631 3412 270 
Q 2881 -91 1863 -91 
Q 1503 -91 1142 -33 
Q 781 25 428 141 
L 428 1069 
Q 766 900 1098 814 
Q 1431 728 1753 728 
Q 2231 728 2486 893 
Q 2741 1059 2741 1369 
Q 2741 1688 2480 1852 
Q 2219 2016 1709 2016 
L 1228 2016 
L 1228 2791 
L 1734 2791 
Q 2188 2791 2409 2933 
Q 2631 3075 2631 3366 
Q 2631 3634 2415 3781 
Q 2200 3928 1806 3928 
Q 1516 3928 1219 3862 
Q 922 3797 628 3669 
L 628 4550 
Q 984 4650 1334 4700 
Q 1684 4750 2022 4750 
Q 2931 4750 3382 4451 
Q 3834 4153 3834 3553 
Q 3834 3144 3618 2883 
Q 3403 2622 2981 2516 
z
" id="DejaVuSans-Bold-33" transform="scale(0.015625)"/>
     </defs>
     <use xlink:href="#DejaVuSans-Bold-31"/>
     <use x="69.580078" xlink:href="#DejaVuSans-Bold-2e"/>
     <use x="107.568359" xlink:href="#DejaVuSans-Bold-31"/>
     <use x="177.148438" xlink:href="#DejaVuSans-Bold-33"/>
    </g>
   </g>
   <g id="text_14">
    <!-- h -->
    <g style="fill:#696969;" transform="translate(518.105003 150.93355)scale(0.1 -0.1)">
     <defs>
      <path d="M 4056 2131 
L 4056 0 
L 2931 0 
L 2931 347 
L 2931 1625 
Q 2931 2084 2911 2256 
Q 2891 2428 2841 2509 
Q 2775 2619 2662 2680 
Q 2550 2741 2406 2741 
Q 2056 2741 1856 2470 
Q 1656 2200 1656 1722 
L 1656 0 
L 538 0 
L 538 4863 
L 1656 4863 
L 1656 2988 
Q 1909 3294 2193 3439 
Q 2478 3584 2822 3584 
Q 3428 3584 3742 3212 
Q 4056 2841 4056 2131 
z
" id="DejaVuSans-Bold-68" transform="scale(0.015625)"/>
     </defs>
     <use xlink:href="#DejaVuSans-Bold-68"/>
    </g>
   </g>
   <g id="text_15">
    <!-- 0.76 -->
    <g style="fill:#696969;" transform="translate(509.32844 209.06645)scale(0.1 -0.1)">
     <defs>
      <path d="M 2316 2303 
Q 2000 2303 1842 2098 
Q 1684 1894 1684 1484 
Q 1684 1075 1842 870 
Q 2000 666 2316 666 
Q 2634 666 2792 870 
Q 2950 1075 2950 1484 
Q 2950 1894 2792 2098 
Q 2634 2303 2316 2303 
z
M 3803 4544 
L 3803 3681 
Q 3506 3822 3243 3889 
Q 2981 3956 2731 3956 
Q 2194 3956 1894 3657 
Q 1594 3359 1544 2772 
Q 1750 2925 1990 3001 
Q 2231 3078 2516 3078 
Q 3231 3078 3670 2659 
Q 4109 2241 4109 1563 
Q 4109 813 3618 361 
Q 3128 -91 2303 -91 
Q 1394 -91 895 523 
Q 397 1138 397 2266 
Q 397 3422 980 4083 
Q 1563 4744 2578 4744 
Q 2900 4744 3203 4694 
Q 3506 4644 3803 4544 
z
" id="DejaVuSans-Bold-36" transform="scale(0.015625)"/>
     </defs>
     <use xlink:href="#DejaVuSans-Bold-30"/>
     <use x="69.580078" xlink:href="#DejaVuSans-Bold-2e"/>
     <use x="107.568359" xlink:href="#DejaVuSans-Bold-37"/>
     <use x="177.148438" xlink:href="#DejaVuSans-Bold-36"/>
    </g>
   </g>
  </g>
 </g>
 <defs>
  <clipPath id="pd5ade8be5c">
   <rect height="338.4" width="569.472009" x="10.8" y="10.8"/>
  </clipPath>
 </defs>
</svg>
