<?xml version="1.0" encoding="utf-8" standalone="no"?>
<!DOCTYPE svg PUBLIC "-//W3C//DTD SVG 1.1//EN"
  "http://www.w3.org/Graphics/SVG/1.1/DTD/svg11.dtd">
<svg height="360pt" version="1.1" viewBox="0 0 644.277299 360" width="644.277299pt" xmlns="http://www.w3.org/2000/svg" xmlns:xlink="http://www.w3.org/1999/xlink">
 <metadata>
  <rdf:RDF xmlns:cc="http://creativecommons.org/ns#" xmlns:dc="http://purl.org/dc/elements/1.1/" xmlns:rdf="http://www.w3.org/1999/02/22-rdf-syntax-ns#">
   <cc:Work>
    <dc:type rdf:resource="http://purl.org/dc/dcmitype/StillImage"/>
    <dc:date>2023-07-25T21:01:32.098658</dc:date>
    <dc:format>image/svg+xml</dc:format>
    <dc:creator>
     <cc:Agent>
      <dc:title>Matplotlib v3.4.3, https://matplotlib.org/</dc:title>
     </cc:Agent>
    </dc:creator>
   </cc:Work>
  </rdf:RDF>
 </metadata>
 <defs>
  <style type="text/css">*{stroke-linecap:butt;stroke-linejoin:round;}</style>
 </defs>
 <g id="figure_1">
  <g id="patch_1">
   <path d="M 0 360 
L 644.277299 360 
L 644.277299 0 
L 0 0 
z
" style="fill:#ffffff;"/>
  </g>
  <g id="axes_1">
   <g id="patch_2">
    <path d="M 10.8 349.2 
L 633.477299 349.2 
L 633.477299 10.8 
L 10.8 10.8 
z
" style="fill:#ffffff;"/>
   </g>
   <g id="PathCollection_1">
    <defs>
     <path d="M 0 111.803399 
C 29.650608 111.803399 58.090796 100.023087 79.056942 79.056942 
C 100.023087 58.090796 111.803399 29.650608 111.803399 0 
C 111.803399 -29.650608 100.023087 -58.090796 79.056942 -79.056942 
C 58.090796 -100.023087 29.650608 -111.803399 0 -111.803399 
C -29.650608 -111.803399 -58.090796 -100.023087 -79.056942 -79.056942 
C -100.023087 -58.090796 -111.803399 -29.650608 -111.803399 0 
C -111.803399 29.650608 -100.023087 58.090796 -79.056942 79.056942 
C -58.090796 100.023087 -29.650608 111.803399 0 111.803399 
z
" id="mff182196c6" style="stroke:#ec6d00;stroke-width:10;"/>
    </defs>
    <g clip-path="url(#p3bbb492c3f)">
     <use style="fill:#ff9400;stroke:#ec6d00;stroke-width:10;" x="10.8" xlink:href="#mff182196c6" y="180"/>
    </g>
   </g>
   <g id="PathCollection_2">
    <defs>
     <path d="M 0 0.972726 
C 0.25797 0.972726 0.505409 0.870233 0.687821 0.687821 
C 0.870233 0.505409 0.972726 0.25797 0.972726 0 
C 0.972726 -0.25797 0.870233 -0.505409 0.687821 -0.687821 
C 0.505409 -0.870233 0.25797 -0.972726 0 -0.972726 
C -0.25797 -0.972726 -0.505409 -0.870233 -0.687821 -0.687821 
C -0.870233 -0.505409 -0.972726 -0.25797 -0.972726 0 
C -0.972726 0.25797 -0.870233 0.505409 -0.687821 0.687821 
C -0.505409 0.870233 -0.25797 0.972726 0 0.972726 
z
" id="mada06e5b97" style="stroke:#000000;"/>
    </defs>
    <g clip-path="url(#p3bbb492c3f)">
     <use style="stroke:#000000;" x="162.578991" xlink:href="#mada06e5b97" y="180"/>
    </g>
   </g>
   <g id="PathCollection_3">
    <defs>
     <path d="M 0 1.025001 
C 0.271833 1.025001 0.53257 0.917001 0.724785 0.724785 
C 0.917001 0.53257 1.025001 0.271833 1.025001 0 
C 1.025001 -0.271833 0.917001 -0.53257 0.724785 -0.724785 
C 0.53257 -0.917001 0.271833 -1.025001 0 -1.025001 
C -0.271833 -1.025001 -0.53257 -0.917001 -0.724785 -0.724785 
C -0.917001 -0.53257 -1.025001 -0.271833 -1.025001 0 
C -1.025001 0.271833 -0.917001 0.53257 -0.724785 0.724785 
C -0.53257 0.917001 -0.271833 1.025001 0 1.025001 
z
" id="m9a1ed63e8f" style="stroke:#000000;"/>
    </defs>
    <g clip-path="url(#p3bbb492c3f)">
     <use style="stroke:#000000;" x="222.639734" xlink:href="#m9a1ed63e8f" y="180"/>
    </g>
   </g>
   <g id="PathCollection_4">
    <defs>
     <path d="M 0 0.545301 
C 0.144615 0.545301 0.283327 0.487844 0.385586 0.385586 
C 0.487844 0.283327 0.545301 0.144615 0.545301 0 
C 0.545301 -0.144615 0.487844 -0.283327 0.385586 -0.385586 
C 0.283327 -0.487844 0.144615 -0.545301 0 -0.545301 
C -0.144615 -0.545301 -0.283327 -0.487844 -0.385586 -0.385586 
C -0.487844 -0.283327 -0.545301 -0.144615 -0.545301 0 
C -0.545301 0.144615 -0.487844 0.283327 -0.385586 0.385586 
C -0.283327 0.487844 -0.144615 0.545301 0 0.545301 
z
" id="m20ec0352cc" style="stroke:#000000;"/>
    </defs>
    <g clip-path="url(#p3bbb492c3f)">
     <use style="stroke:#000000;" x="282.257097" xlink:href="#m20ec0352cc" y="180"/>
    </g>
   </g>
   <g id="PathCollection_5">
    <defs>
     <path d="M 0 11.490262 
C 3.047253 11.490262 5.970109 10.279576 8.124842 8.124842 
C 10.279576 5.970109 11.490262 3.047253 11.490262 0 
C 11.490262 -3.047253 10.279576 -5.970109 8.124842 -8.124842 
C 5.970109 -10.279576 3.047253 -11.490262 0 -11.490262 
C -3.047253 -11.490262 -5.970109 -10.279576 -8.124842 -8.124842 
C -10.279576 -5.970109 -11.490262 -3.047253 -11.490262 0 
C -11.490262 3.047253 -10.279576 5.970109 -8.124842 8.124842 
C -5.970109 10.279576 -3.047253 11.490262 0 11.490262 
z
" id="mf66f239959" style="stroke:#000000;"/>
    </defs>
    <g clip-path="url(#p3bbb492c3f)">
     <use style="stroke:#000000;" x="352.730377" xlink:href="#mf66f239959" y="180"/>
    </g>
   </g>
   <g id="PathCollection_6">
    <defs>
     <path d="M 0 9.68626 
C 2.568826 9.68626 5.032786 8.665655 6.84922 6.84922 
C 8.665655 5.032786 9.68626 2.568826 9.68626 0 
C 9.68626 -2.568826 8.665655 -5.032786 6.84922 -6.84922 
C 5.032786 -8.665655 2.568826 -9.68626 0 -9.68626 
C -2.568826 -9.68626 -5.032786 -8.665655 -6.84922 -6.84922 
C -8.665655 -5.032786 -9.68626 -2.568826 -9.68626 0 
C -9.68626 2.568826 -8.665655 5.032786 -6.84922 6.84922 
C -5.032786 8.665655 -2.568826 9.68626 0 9.68626 
z
" id="m71bfe3e260" style="stroke:#000000;"/>
    </defs>
    <g clip-path="url(#p3bbb492c3f)">
     <use style="stroke:#000000;" x="432.685838" xlink:href="#m71bfe3e260" y="180"/>
    </g>
   </g>
   <g id="PathCollection_7">
    <defs>
     <path d="M 0 4.110254 
C 1.090052 4.110254 2.135605 3.677172 2.906389 2.906389 
C 3.677172 2.135605 4.110254 1.090052 4.110254 0 
C 4.110254 -1.090052 3.677172 -2.135605 2.906389 -2.906389 
C 2.135605 -3.677172 1.090052 -4.110254 0 -4.110254 
C -1.090052 -4.110254 -2.135605 -3.677172 -2.906389 -2.906389 
C -3.677172 -2.135605 -4.110254 -1.090052 -4.110254 0 
C -4.110254 1.090052 -3.677172 2.135605 -2.906389 2.906389 
C -2.135605 3.677172 -1.090052 4.110254 0 4.110254 
z
" id="m84303a71d6" style="stroke:#000000;"/>
    </defs>
    <g clip-path="url(#p3bbb492c3f)">
     <use style="stroke:#000000;" x="504.985804" xlink:href="#m84303a71d6" y="180"/>
    </g>
   </g>
   <g id="PathCollection_8">
    <defs>
     <path d="M 0 3.977004 
C 1.054714 3.977004 2.066371 3.557962 2.812167 2.812167 
C 3.557962 2.066371 3.977004 1.054714 3.977004 0 
C 3.977004 -1.054714 3.557962 -2.066371 2.812167 -2.812167 
C 2.066371 -3.557962 1.054714 -3.977004 0 -3.977004 
C -1.054714 -3.977004 -2.066371 -3.557962 -2.812167 -2.812167 
C -3.557962 -2.066371 -3.977004 -1.054714 -3.977004 0 
C -3.977004 1.054714 -3.557962 2.066371 -2.812167 2.812167 
C -2.066371 3.557962 -1.054714 3.977004 0 3.977004 
z
" id="mbf754c30dc" style="stroke:#000000;"/>
    </defs>
    <g clip-path="url(#p3bbb492c3f)">
     <use style="stroke:#000000;" x="571.363394" xlink:href="#mbf754c30dc" y="180"/>
    </g>
   </g>
   <g id="matplotlib.axis_1">
    <g id="xtick_1"/>
    <g id="xtick_2"/>
    <g id="xtick_3"/>
    <g id="xtick_4"/>
    <g id="xtick_5"/>
    <g id="xtick_6"/>
   </g>
   <g id="matplotlib.axis_2">
    <g id="ytick_1"/>
    <g id="ytick_2"/>
    <g id="ytick_3"/>
    <g id="ytick_4"/>
    <g id="ytick_5"/>
    <g id="ytick_6"/>
    <g id="ytick_7"/>
   </g>
   <g id="patch_3">
    <path d="M 10.8 349.2 
L 10.8 10.8 
" style="fill:none;stroke:#000000;stroke-linecap:square;stroke-linejoin:miter;stroke-width:1.5;"/>
   </g>
   <g id="patch_4">
    <path d="M 633.477299 349.2 
L 633.477299 10.8 
" style="fill:none;stroke:#000000;stroke-linecap:square;stroke-linejoin:miter;stroke-width:1.5;"/>
   </g>
   <g id="patch_5">
    <path d="M 10.8 349.2 
L 633.477299 349.2 
" style="fill:none;stroke:#000000;stroke-linecap:square;stroke-linejoin:miter;stroke-width:1.5;"/>
   </g>
   <g id="patch_6">
    <path d="M 10.8 10.8 
L 633.477299 10.8 
" style="fill:none;stroke:#000000;stroke-linecap:square;stroke-linejoin:miter;stroke-width:1.5;"/>
   </g>
   <g id="text_1">
    <!-- Sun -->
    <g style="fill:#b23200;" transform="translate(16.598844 160.36375)scale(0.1 -0.1)">
     <defs>
      <path d="M 3834 4519 
L 3834 3531 
Q 3450 3703 3084 3790 
Q 2719 3878 2394 3878 
Q 1963 3878 1756 3759 
Q 1550 3641 1550 3391 
Q 1550 3203 1689 3098 
Q 1828 2994 2194 2919 
L 2706 2816 
Q 3484 2659 3812 2340 
Q 4141 2022 4141 1434 
Q 4141 663 3683 286 
Q 3225 -91 2284 -91 
Q 1841 -91 1394 -6 
Q 947 78 500 244 
L 500 1259 
Q 947 1022 1364 901 
Q 1781 781 2169 781 
Q 2563 781 2772 912 
Q 2981 1044 2981 1288 
Q 2981 1506 2839 1625 
Q 2697 1744 2272 1838 
L 1806 1941 
Q 1106 2091 782 2419 
Q 459 2747 459 3303 
Q 459 4000 909 4375 
Q 1359 4750 2203 4750 
Q 2588 4750 2994 4692 
Q 3400 4634 3834 4519 
z
" id="DejaVuSans-Bold-53" transform="scale(0.015625)"/>
      <path d="M 500 1363 
L 500 3500 
L 1625 3500 
L 1625 3150 
Q 1625 2866 1622 2436 
Q 1619 2006 1619 1863 
Q 1619 1441 1641 1255 
Q 1663 1069 1716 984 
Q 1784 875 1895 815 
Q 2006 756 2150 756 
Q 2500 756 2700 1025 
Q 2900 1294 2900 1772 
L 2900 3500 
L 4019 3500 
L 4019 0 
L 2900 0 
L 2900 506 
Q 2647 200 2364 54 
Q 2081 -91 1741 -91 
Q 1134 -91 817 281 
Q 500 653 500 1363 
z
" id="DejaVuSans-Bold-75" transform="scale(0.015625)"/>
      <path d="M 4056 2131 
L 4056 0 
L 2931 0 
L 2931 347 
L 2931 1631 
Q 2931 2084 2911 2256 
Q 2891 2428 2841 2509 
Q 2775 2619 2662 2680 
Q 2550 2741 2406 2741 
Q 2056 2741 1856 2470 
Q 1656 2200 1656 1722 
L 1656 0 
L 538 0 
L 538 3500 
L 1656 3500 
L 1656 2988 
Q 1909 3294 2193 3439 
Q 2478 3584 2822 3584 
Q 3428 3584 3742 3212 
Q 4056 2841 4056 2131 
z
" id="DejaVuSans-Bold-6e" transform="scale(0.015625)"/>
     </defs>
     <use xlink:href="#DejaVuSans-Bold-53"/>
     <use x="72.021484" xlink:href="#DejaVuSans-Bold-75"/>
     <use x="143.212891" xlink:href="#DejaVuSans-Bold-6e"/>
    </g>
    <!--  -->
    <g style="fill:#b23200;" transform="translate(16.598844 171.561563)scale(0.1 -0.1)"/>
    <!-- 1.00 R$_\odot$ -->
    <g style="fill:#b23200;" transform="translate(16.598844 182.759375)scale(0.1 -0.1)">
     <defs>
      <path d="M 750 831 
L 1813 831 
L 1813 3847 
L 722 3622 
L 722 4441 
L 1806 4666 
L 2950 4666 
L 2950 831 
L 4013 831 
L 4013 0 
L 750 0 
L 750 831 
z
" id="DejaVuSans-Bold-31" transform="scale(0.015625)"/>
      <path d="M 653 1209 
L 1778 1209 
L 1778 0 
L 653 0 
L 653 1209 
z
" id="DejaVuSans-Bold-2e" transform="scale(0.015625)"/>
      <path d="M 2944 2338 
Q 2944 3213 2780 3570 
Q 2616 3928 2228 3928 
Q 1841 3928 1675 3570 
Q 1509 3213 1509 2338 
Q 1509 1453 1675 1090 
Q 1841 728 2228 728 
Q 2613 728 2778 1090 
Q 2944 1453 2944 2338 
z
M 4147 2328 
Q 4147 1169 3647 539 
Q 3147 -91 2228 -91 
Q 1306 -91 806 539 
Q 306 1169 306 2328 
Q 306 3491 806 4120 
Q 1306 4750 2228 4750 
Q 3147 4750 3647 4120 
Q 4147 3491 4147 2328 
z
" id="DejaVuSans-Bold-30" transform="scale(0.015625)"/>
      <path id="DejaVuSans-Bold-20" transform="scale(0.015625)"/>
      <path d="M 2297 2597 
Q 2675 2597 2839 2737 
Q 3003 2878 3003 3200 
Q 3003 3519 2839 3656 
Q 2675 3794 2297 3794 
L 1791 3794 
L 1791 2597 
L 2297 2597 
z
M 1791 1766 
L 1791 0 
L 588 0 
L 588 4666 
L 2425 4666 
Q 3347 4666 3776 4356 
Q 4206 4047 4206 3378 
Q 4206 2916 3982 2619 
Q 3759 2322 3309 2181 
Q 3556 2125 3751 1926 
Q 3947 1728 4147 1325 
L 4800 0 
L 3519 0 
L 2950 1159 
Q 2778 1509 2601 1637 
Q 2425 1766 2131 1766 
L 1791 1766 
z
" id="DejaVuSans-Bold-52" transform="scale(0.015625)"/>
      <path d="M 2350 2403 
L 3013 2403 
L 3013 1609 
L 2350 1609 
L 2350 2403 
z
M 3306 3522 
Q 3016 3644 2681 3644 
Q 2347 3644 2056 3522 
Q 1769 3400 1531 3163 
Q 1291 2922 1172 2634 
Q 1053 2347 1053 2006 
Q 1053 1675 1172 1387 
Q 1291 1100 1531 859 
Q 1769 622 2056 500 
Q 2347 378 2681 378 
Q 3016 378 3306 500 
Q 3594 622 3831 859 
Q 4072 1100 4190 1387 
Q 4309 1675 4309 2006 
Q 4309 2347 4190 2634 
Q 4072 2922 3831 3163 
Q 3594 3400 3306 3522 
z
M 1878 3956 
Q 2250 4113 2681 4113 
Q 3113 4113 3484 3956 
Q 3856 3800 4163 3494 
Q 4472 3184 4625 2813 
Q 4778 2444 4778 2006 
Q 4778 1578 4625 1206 
Q 4472 838 4163 528 
Q 3856 222 3484 65 
Q 3113 -91 2681 -91 
Q 2250 -91 1878 65 
Q 1506 222 1200 528 
Q 891 838 738 1206 
Q 584 1578 584 2006 
Q 584 2444 738 2813 
Q 891 3184 1200 3494 
Q 1506 3800 1878 3956 
z
" id="DejaVuSans-2299" transform="scale(0.015625)"/>
     </defs>
     <use transform="translate(0 0.78125)" xlink:href="#DejaVuSans-Bold-31"/>
     <use transform="translate(69.580078 0.78125)" xlink:href="#DejaVuSans-Bold-2e"/>
     <use transform="translate(107.568359 0.78125)" xlink:href="#DejaVuSans-Bold-30"/>
     <use transform="translate(177.148438 0.78125)" xlink:href="#DejaVuSans-Bold-30"/>
     <use transform="translate(246.728516 0.78125)" xlink:href="#DejaVuSans-Bold-20"/>
     <use transform="translate(281.542969 0.78125)" xlink:href="#DejaVuSans-Bold-52"/>
     <use transform="translate(373.139648 -15.625)scale(0.7)" xlink:href="#DejaVuSans-2299"/>
    </g>
    <!--  -->
    <g style="fill:#b23200;" transform="translate(16.598844 193.957188)scale(0.1 -0.1)"/>
    <!-- 8 Planets -->
    <g style="fill:#b23200;" transform="translate(16.598844 205.155)scale(0.1 -0.1)">
     <defs>
      <path d="M 2228 2088 
Q 1891 2088 1709 1903 
Q 1528 1719 1528 1375 
Q 1528 1031 1709 848 
Q 1891 666 2228 666 
Q 2563 666 2741 848 
Q 2919 1031 2919 1375 
Q 2919 1722 2741 1905 
Q 2563 2088 2228 2088 
z
M 1350 2484 
Q 925 2613 709 2878 
Q 494 3144 494 3541 
Q 494 4131 934 4440 
Q 1375 4750 2228 4750 
Q 3075 4750 3515 4442 
Q 3956 4134 3956 3541 
Q 3956 3144 3739 2878 
Q 3522 2613 3097 2484 
Q 3572 2353 3814 2058 
Q 4056 1763 4056 1313 
Q 4056 619 3595 264 
Q 3134 -91 2228 -91 
Q 1319 -91 855 264 
Q 391 619 391 1313 
Q 391 1763 633 2058 
Q 875 2353 1350 2484 
z
M 1631 3419 
Q 1631 3141 1786 2991 
Q 1941 2841 2228 2841 
Q 2509 2841 2662 2991 
Q 2816 3141 2816 3419 
Q 2816 3697 2662 3845 
Q 2509 3994 2228 3994 
Q 1941 3994 1786 3844 
Q 1631 3694 1631 3419 
z
" id="DejaVuSans-Bold-38" transform="scale(0.015625)"/>
      <path d="M 588 4666 
L 2584 4666 
Q 3475 4666 3951 4270 
Q 4428 3875 4428 3144 
Q 4428 2409 3951 2014 
Q 3475 1619 2584 1619 
L 1791 1619 
L 1791 0 
L 588 0 
L 588 4666 
z
M 1791 3794 
L 1791 2491 
L 2456 2491 
Q 2806 2491 2997 2661 
Q 3188 2831 3188 3144 
Q 3188 3456 2997 3625 
Q 2806 3794 2456 3794 
L 1791 3794 
z
" id="DejaVuSans-Bold-50" transform="scale(0.015625)"/>
      <path d="M 538 4863 
L 1656 4863 
L 1656 0 
L 538 0 
L 538 4863 
z
" id="DejaVuSans-Bold-6c" transform="scale(0.015625)"/>
      <path d="M 2106 1575 
Q 1756 1575 1579 1456 
Q 1403 1338 1403 1106 
Q 1403 894 1545 773 
Q 1688 653 1941 653 
Q 2256 653 2472 879 
Q 2688 1106 2688 1447 
L 2688 1575 
L 2106 1575 
z
M 3816 1997 
L 3816 0 
L 2688 0 
L 2688 519 
Q 2463 200 2181 54 
Q 1900 -91 1497 -91 
Q 953 -91 614 226 
Q 275 544 275 1050 
Q 275 1666 698 1953 
Q 1122 2241 2028 2241 
L 2688 2241 
L 2688 2328 
Q 2688 2594 2478 2717 
Q 2269 2841 1825 2841 
Q 1466 2841 1156 2769 
Q 847 2697 581 2553 
L 581 3406 
Q 941 3494 1303 3539 
Q 1666 3584 2028 3584 
Q 2975 3584 3395 3211 
Q 3816 2838 3816 1997 
z
" id="DejaVuSans-Bold-61" transform="scale(0.015625)"/>
      <path d="M 4031 1759 
L 4031 1441 
L 1416 1441 
Q 1456 1047 1700 850 
Q 1944 653 2381 653 
Q 2734 653 3104 758 
Q 3475 863 3866 1075 
L 3866 213 
Q 3469 63 3072 -14 
Q 2675 -91 2278 -91 
Q 1328 -91 801 392 
Q 275 875 275 1747 
Q 275 2603 792 3093 
Q 1309 3584 2216 3584 
Q 3041 3584 3536 3087 
Q 4031 2591 4031 1759 
z
M 2881 2131 
Q 2881 2450 2695 2645 
Q 2509 2841 2209 2841 
Q 1884 2841 1681 2658 
Q 1478 2475 1428 2131 
L 2881 2131 
z
" id="DejaVuSans-Bold-65" transform="scale(0.015625)"/>
      <path d="M 1759 4494 
L 1759 3500 
L 2913 3500 
L 2913 2700 
L 1759 2700 
L 1759 1216 
Q 1759 972 1856 886 
Q 1953 800 2241 800 
L 2816 800 
L 2816 0 
L 1856 0 
Q 1194 0 917 276 
Q 641 553 641 1216 
L 641 2700 
L 84 2700 
L 84 3500 
L 641 3500 
L 641 4494 
L 1759 4494 
z
" id="DejaVuSans-Bold-74" transform="scale(0.015625)"/>
      <path d="M 3272 3391 
L 3272 2541 
Q 2913 2691 2578 2766 
Q 2244 2841 1947 2841 
Q 1628 2841 1473 2761 
Q 1319 2681 1319 2516 
Q 1319 2381 1436 2309 
Q 1553 2238 1856 2203 
L 2053 2175 
Q 2913 2066 3209 1816 
Q 3506 1566 3506 1031 
Q 3506 472 3093 190 
Q 2681 -91 1863 -91 
Q 1516 -91 1145 -36 
Q 775 19 384 128 
L 384 978 
Q 719 816 1070 734 
Q 1422 653 1784 653 
Q 2113 653 2278 743 
Q 2444 834 2444 1013 
Q 2444 1163 2330 1236 
Q 2216 1309 1875 1350 
L 1678 1375 
Q 931 1469 631 1722 
Q 331 1975 331 2491 
Q 331 3047 712 3315 
Q 1094 3584 1881 3584 
Q 2191 3584 2531 3537 
Q 2872 3491 3272 3391 
z
" id="DejaVuSans-Bold-73" transform="scale(0.015625)"/>
     </defs>
     <use xlink:href="#DejaVuSans-Bold-38"/>
     <use x="69.580078" xlink:href="#DejaVuSans-Bold-20"/>
     <use x="104.394531" xlink:href="#DejaVuSans-Bold-50"/>
     <use x="177.685547" xlink:href="#DejaVuSans-Bold-6c"/>
     <use x="211.962891" xlink:href="#DejaVuSans-Bold-61"/>
     <use x="279.443359" xlink:href="#DejaVuSans-Bold-6e"/>
     <use x="350.634766" xlink:href="#DejaVuSans-Bold-65"/>
     <use x="418.457031" xlink:href="#DejaVuSans-Bold-74"/>
     <use x="466.259766" xlink:href="#DejaVuSans-Bold-73"/>
    </g>
   </g>
   <g id="text_2">
    <!-- Venus -->
    <g style="fill:#696969;" transform="translate(145.498522 156.458603)scale(0.1 -0.1)">
     <defs>
      <path d="M 31 4666 
L 1241 4666 
L 2478 1222 
L 3713 4666 
L 4922 4666 
L 3194 0 
L 1759 0 
L 31 4666 
z
" id="DejaVuSans-Bold-56" transform="scale(0.015625)"/>
     </defs>
     <use xlink:href="#DejaVuSans-Bold-56"/>
     <use x="71.892578" xlink:href="#DejaVuSans-Bold-65"/>
     <use x="139.714844" xlink:href="#DejaVuSans-Bold-6e"/>
     <use x="210.90625" xlink:href="#DejaVuSans-Bold-75"/>
     <use x="282.097656" xlink:href="#DejaVuSans-Bold-73"/>
    </g>
   </g>
   <g id="text_3">
    <!-- 0.95 -->
    <g style="fill:#696969;" transform="translate(150.243053 203.541397)scale(0.1 -0.1)">
     <defs>
      <path d="M 641 103 
L 641 966 
Q 928 831 1190 764 
Q 1453 697 1709 697 
Q 2247 697 2547 995 
Q 2847 1294 2900 1881 
Q 2688 1725 2447 1647 
Q 2206 1569 1925 1569 
Q 1209 1569 770 1986 
Q 331 2403 331 3084 
Q 331 3838 820 4291 
Q 1309 4744 2131 4744 
Q 3044 4744 3544 4128 
Q 4044 3513 4044 2388 
Q 4044 1231 3459 570 
Q 2875 -91 1856 -91 
Q 1528 -91 1228 -42 
Q 928 6 641 103 
z
M 2125 2350 
Q 2441 2350 2600 2554 
Q 2759 2759 2759 3169 
Q 2759 3575 2600 3781 
Q 2441 3988 2125 3988 
Q 1809 3988 1650 3781 
Q 1491 3575 1491 3169 
Q 1491 2759 1650 2554 
Q 1809 2350 2125 2350 
z
" id="DejaVuSans-Bold-39" transform="scale(0.015625)"/>
      <path d="M 678 4666 
L 3669 4666 
L 3669 3781 
L 1638 3781 
L 1638 3059 
Q 1775 3097 1914 3117 
Q 2053 3138 2203 3138 
Q 3056 3138 3531 2711 
Q 4006 2284 4006 1522 
Q 4006 766 3489 337 
Q 2972 -91 2053 -91 
Q 1656 -91 1267 -14 
Q 878 63 494 219 
L 494 1166 
Q 875 947 1217 837 
Q 1559 728 1863 728 
Q 2300 728 2551 942 
Q 2803 1156 2803 1522 
Q 2803 1891 2551 2103 
Q 2300 2316 1863 2316 
Q 1603 2316 1309 2248 
Q 1016 2181 678 2041 
L 678 4666 
z
" id="DejaVuSans-Bold-35" transform="scale(0.015625)"/>
     </defs>
     <use xlink:href="#DejaVuSans-Bold-30"/>
     <use x="69.580078" xlink:href="#DejaVuSans-Bold-2e"/>
     <use x="107.568359" xlink:href="#DejaVuSans-Bold-39"/>
     <use x="177.148438" xlink:href="#DejaVuSans-Bold-35"/>
    </g>
   </g>
   <g id="text_4">
    <!-- Earth -->
    <g style="fill:#696969;" transform="translate(207.435047 156.405862)scale(0.1 -0.1)">
     <defs>
      <path d="M 588 4666 
L 3834 4666 
L 3834 3756 
L 1791 3756 
L 1791 2888 
L 3713 2888 
L 3713 1978 
L 1791 1978 
L 1791 909 
L 3903 909 
L 3903 0 
L 588 0 
L 588 4666 
z
" id="DejaVuSans-Bold-45" transform="scale(0.015625)"/>
      <path d="M 3138 2547 
Q 2991 2616 2845 2648 
Q 2700 2681 2553 2681 
Q 2122 2681 1889 2404 
Q 1656 2128 1656 1613 
L 1656 0 
L 538 0 
L 538 3500 
L 1656 3500 
L 1656 2925 
Q 1872 3269 2151 3426 
Q 2431 3584 2822 3584 
Q 2878 3584 2943 3579 
Q 3009 3575 3134 3559 
L 3138 2547 
z
" id="DejaVuSans-Bold-72" transform="scale(0.015625)"/>
      <path d="M 4056 2131 
L 4056 0 
L 2931 0 
L 2931 347 
L 2931 1625 
Q 2931 2084 2911 2256 
Q 2891 2428 2841 2509 
Q 2775 2619 2662 2680 
Q 2550 2741 2406 2741 
Q 2056 2741 1856 2470 
Q 1656 2200 1656 1722 
L 1656 0 
L 538 0 
L 538 4863 
L 1656 4863 
L 1656 2988 
Q 1909 3294 2193 3439 
Q 2478 3584 2822 3584 
Q 3428 3584 3742 3212 
Q 4056 2841 4056 2131 
z
" id="DejaVuSans-Bold-68" transform="scale(0.015625)"/>
     </defs>
     <use xlink:href="#DejaVuSans-Bold-45"/>
     <use x="68.310547" xlink:href="#DejaVuSans-Bold-61"/>
     <use x="135.791016" xlink:href="#DejaVuSans-Bold-72"/>
     <use x="185.107422" xlink:href="#DejaVuSans-Bold-74"/>
     <use x="232.910156" xlink:href="#DejaVuSans-Bold-68"/>
    </g>
   </g>
   <g id="text_5">
    <!-- 1.00 -->
    <g style="fill:#696969;" transform="translate(210.303797 203.594138)scale(0.1 -0.1)">
     <use xlink:href="#DejaVuSans-Bold-31"/>
     <use x="69.580078" xlink:href="#DejaVuSans-Bold-2e"/>
     <use x="107.568359" xlink:href="#DejaVuSans-Bold-30"/>
     <use x="177.148438" xlink:href="#DejaVuSans-Bold-30"/>
    </g>
   </g>
   <g id="text_6">
    <!-- Mars -->
    <g style="fill:#696969;" transform="translate(268.465691 156.889839)scale(0.1 -0.1)">
     <defs>
      <path d="M 588 4666 
L 2119 4666 
L 3181 2169 
L 4250 4666 
L 5778 4666 
L 5778 0 
L 4641 0 
L 4641 3413 
L 3566 897 
L 2803 897 
L 1728 3413 
L 1728 0 
L 588 0 
L 588 4666 
z
" id="DejaVuSans-Bold-4d" transform="scale(0.015625)"/>
     </defs>
     <use xlink:href="#DejaVuSans-Bold-4d"/>
     <use x="99.511719" xlink:href="#DejaVuSans-Bold-61"/>
     <use x="166.992188" xlink:href="#DejaVuSans-Bold-72"/>
     <use x="216.308594" xlink:href="#DejaVuSans-Bold-73"/>
    </g>
   </g>
   <g id="text_7">
    <!-- 0.53 -->
    <g style="fill:#696969;" transform="translate(269.92116 203.110161)scale(0.1 -0.1)">
     <defs>
      <path d="M 2981 2516 
Q 3453 2394 3698 2092 
Q 3944 1791 3944 1325 
Q 3944 631 3412 270 
Q 2881 -91 1863 -91 
Q 1503 -91 1142 -33 
Q 781 25 428 141 
L 428 1069 
Q 766 900 1098 814 
Q 1431 728 1753 728 
Q 2231 728 2486 893 
Q 2741 1059 2741 1369 
Q 2741 1688 2480 1852 
Q 2219 2016 1709 2016 
L 1228 2016 
L 1228 2791 
L 1734 2791 
Q 2188 2791 2409 2933 
Q 2631 3075 2631 3366 
Q 2631 3634 2415 3781 
Q 2200 3928 1806 3928 
Q 1516 3928 1219 3862 
Q 922 3797 628 3669 
L 628 4550 
Q 984 4650 1334 4700 
Q 1684 4750 2022 4750 
Q 2931 4750 3382 4451 
Q 3834 4153 3834 3553 
Q 3834 3144 3618 2883 
Q 3403 2622 2981 2516 
z
" id="DejaVuSans-Bold-33" transform="scale(0.015625)"/>
     </defs>
     <use xlink:href="#DejaVuSans-Bold-30"/>
     <use x="69.580078" xlink:href="#DejaVuSans-Bold-2e"/>
     <use x="107.568359" xlink:href="#DejaVuSans-Bold-35"/>
     <use x="177.148438" xlink:href="#DejaVuSans-Bold-33"/>
    </g>
   </g>
   <g id="text_8">
    <!-- Jupiter -->
    <g style="fill:#696969;" transform="translate(333.771002 145.847315)scale(0.1 -0.1)">
     <defs>
      <path d="M 588 4666 
L 1791 4666 
L 1791 453 
Q 1791 -419 1317 -850 
Q 844 -1281 -116 -1281 
L -359 -1281 
L -359 -372 
L -172 -372 
Q 203 -372 395 -162 
Q 588 47 588 453 
L 588 4666 
z
" id="DejaVuSans-Bold-4a" transform="scale(0.015625)"/>
      <path d="M 1656 506 
L 1656 -1331 
L 538 -1331 
L 538 3500 
L 1656 3500 
L 1656 2988 
Q 1888 3294 2169 3439 
Q 2450 3584 2816 3584 
Q 3463 3584 3878 3070 
Q 4294 2556 4294 1747 
Q 4294 938 3878 423 
Q 3463 -91 2816 -91 
Q 2450 -91 2169 54 
Q 1888 200 1656 506 
z
M 2400 2772 
Q 2041 2772 1848 2508 
Q 1656 2244 1656 1747 
Q 1656 1250 1848 986 
Q 2041 722 2400 722 
Q 2759 722 2948 984 
Q 3138 1247 3138 1747 
Q 3138 2247 2948 2509 
Q 2759 2772 2400 2772 
z
" id="DejaVuSans-Bold-70" transform="scale(0.015625)"/>
      <path d="M 538 3500 
L 1656 3500 
L 1656 0 
L 538 0 
L 538 3500 
z
M 538 4863 
L 1656 4863 
L 1656 3950 
L 538 3950 
L 538 4863 
z
" id="DejaVuSans-Bold-69" transform="scale(0.015625)"/>
     </defs>
     <use xlink:href="#DejaVuSans-Bold-4a"/>
     <use x="37.207031" xlink:href="#DejaVuSans-Bold-75"/>
     <use x="108.398438" xlink:href="#DejaVuSans-Bold-70"/>
     <use x="179.980469" xlink:href="#DejaVuSans-Bold-69"/>
     <use x="214.257812" xlink:href="#DejaVuSans-Bold-74"/>
     <use x="262.060547" xlink:href="#DejaVuSans-Bold-65"/>
     <use x="329.882812" xlink:href="#DejaVuSans-Bold-72"/>
    </g>
   </g>
   <g id="text_9">
    <!-- 11.21 -->
    <g style="fill:#696969;" transform="translate(336.915533 214.152685)scale(0.1 -0.1)">
     <defs>
      <path d="M 1844 884 
L 3897 884 
L 3897 0 
L 506 0 
L 506 884 
L 2209 2388 
Q 2438 2594 2547 2791 
Q 2656 2988 2656 3200 
Q 2656 3528 2436 3728 
Q 2216 3928 1850 3928 
Q 1569 3928 1234 3808 
Q 900 3688 519 3450 
L 519 4475 
Q 925 4609 1322 4679 
Q 1719 4750 2100 4750 
Q 2938 4750 3402 4381 
Q 3866 4013 3866 3353 
Q 3866 2972 3669 2642 
Q 3472 2313 2841 1759 
L 1844 884 
z
" id="DejaVuSans-Bold-32" transform="scale(0.015625)"/>
     </defs>
     <use xlink:href="#DejaVuSans-Bold-31"/>
     <use x="69.580078" xlink:href="#DejaVuSans-Bold-31"/>
     <use x="139.160156" xlink:href="#DejaVuSans-Bold-2e"/>
     <use x="177.148438" xlink:href="#DejaVuSans-Bold-32"/>
     <use x="246.728516" xlink:href="#DejaVuSans-Bold-31"/>
    </g>
   </g>
   <g id="text_10">
    <!-- Saturn -->
    <g style="fill:#696969;" transform="translate(413.736619 147.667398)scale(0.1 -0.1)">
     <use xlink:href="#DejaVuSans-Bold-53"/>
     <use x="72.021484" xlink:href="#DejaVuSans-Bold-61"/>
     <use x="139.501953" xlink:href="#DejaVuSans-Bold-74"/>
     <use x="187.304688" xlink:href="#DejaVuSans-Bold-75"/>
     <use x="258.496094" xlink:href="#DejaVuSans-Bold-72"/>
     <use x="307.8125" xlink:href="#DejaVuSans-Bold-6e"/>
    </g>
   </g>
   <g id="text_11">
    <!-- 9.45 -->
    <g style="fill:#696969;" transform="translate(420.349901 212.332602)scale(0.1 -0.1)">
     <defs>
      <path d="M 2356 3675 
L 1038 1722 
L 2356 1722 
L 2356 3675 
z
M 2156 4666 
L 3494 4666 
L 3494 1722 
L 4159 1722 
L 4159 850 
L 3494 850 
L 3494 0 
L 2356 0 
L 2356 850 
L 288 850 
L 288 1881 
L 2156 4666 
z
" id="DejaVuSans-Bold-34" transform="scale(0.015625)"/>
     </defs>
     <use xlink:href="#DejaVuSans-Bold-39"/>
     <use x="69.580078" xlink:href="#DejaVuSans-Bold-2e"/>
     <use x="107.568359" xlink:href="#DejaVuSans-Bold-34"/>
     <use x="177.148438" xlink:href="#DejaVuSans-Bold-35"/>
    </g>
   </g>
   <g id="text_12">
    <!-- Uranus -->
    <g style="fill:#696969;" transform="translate(484.991273 153.293107)scale(0.1 -0.1)">
     <defs>
      <path d="M 588 4666 
L 1791 4666 
L 1791 1869 
Q 1791 1291 1980 1042 
Q 2169 794 2597 794 
Q 3028 794 3217 1042 
Q 3406 1291 3406 1869 
L 3406 4666 
L 4609 4666 
L 4609 1869 
Q 4609 878 4112 393 
Q 3616 -91 2597 -91 
Q 1581 -91 1084 393 
Q 588 878 588 1869 
L 588 4666 
z
" id="DejaVuSans-Bold-55" transform="scale(0.015625)"/>
     </defs>
     <use xlink:href="#DejaVuSans-Bold-55"/>
     <use x="81.201172" xlink:href="#DejaVuSans-Bold-72"/>
     <use x="130.517578" xlink:href="#DejaVuSans-Bold-61"/>
     <use x="197.998047" xlink:href="#DejaVuSans-Bold-6e"/>
     <use x="269.189453" xlink:href="#DejaVuSans-Bold-75"/>
     <use x="340.380859" xlink:href="#DejaVuSans-Bold-73"/>
    </g>
   </g>
   <g id="text_13">
    <!-- 4.01 -->
    <g style="fill:#696969;" transform="translate(492.649867 206.706893)scale(0.1 -0.1)">
     <use xlink:href="#DejaVuSans-Bold-34"/>
     <use x="69.580078" xlink:href="#DejaVuSans-Bold-2e"/>
     <use x="107.568359" xlink:href="#DejaVuSans-Bold-30"/>
     <use x="177.148438" xlink:href="#DejaVuSans-Bold-31"/>
    </g>
   </g>
   <g id="text_14">
    <!-- Neptune -->
    <g style="fill:#696969;" transform="translate(547.308707 153.427545)scale(0.1 -0.1)">
     <defs>
      <path d="M 588 4666 
L 1931 4666 
L 3628 1466 
L 3628 4666 
L 4769 4666 
L 4769 0 
L 3425 0 
L 1728 3200 
L 1728 0 
L 588 0 
L 588 4666 
z
" id="DejaVuSans-Bold-4e" transform="scale(0.015625)"/>
     </defs>
     <use xlink:href="#DejaVuSans-Bold-4e"/>
     <use x="83.691406" xlink:href="#DejaVuSans-Bold-65"/>
     <use x="151.513672" xlink:href="#DejaVuSans-Bold-70"/>
     <use x="223.095703" xlink:href="#DejaVuSans-Bold-74"/>
     <use x="270.898438" xlink:href="#DejaVuSans-Bold-75"/>
     <use x="342.089844" xlink:href="#DejaVuSans-Bold-6e"/>
     <use x="413.28125" xlink:href="#DejaVuSans-Bold-65"/>
    </g>
   </g>
   <g id="text_15">
    <!-- 3.88 -->
    <g style="fill:#696969;" transform="translate(559.027457 206.572455)scale(0.1 -0.1)">
     <use xlink:href="#DejaVuSans-Bold-33"/>
     <use x="69.580078" xlink:href="#DejaVuSans-Bold-2e"/>
     <use x="107.568359" xlink:href="#DejaVuSans-Bold-38"/>
     <use x="177.148438" xlink:href="#DejaVuSans-Bold-38"/>
    </g>
   </g>
  </g>
 </g>
 <defs>
  <clipPath id="p3bbb492c3f">
   <rect height="338.4" width="622.677299" x="10.8" y="10.8"/>
  </clipPath>
 </defs>
</svg>
